<svg xmlns="http://www.w3.org/2000/svg" version="1.1" xmlns:xlink="http://www.w3.org/1999/xlink" width="108" height="92"><svg width="108" height="92" viewBox="0 0 108 92" fill="none" xmlns="http://www.w3.org/2000/svg">
<path fill-rule="evenodd" clip-rule="evenodd" d="M5.91807 5.84202V72.6823C5.91807 79.9015 11.8451 85.8286 19.0643 85.8286H102.309V18.9883C102.309 11.7691 96.3825 5.84202 89.1633 5.84202H5.91807ZM0.632202 0.556152H89.1633C99.3014 0.556152 107.595 8.85295 107.595 18.9883V91.1144H19.0643C8.92913 91.1144 0.632202 82.8204 0.632202 72.6823V0.556152Z" fill="#E30016"></path>
<path fill-rule="evenodd" clip-rule="evenodd" d="M71.1552 42.1958C69.3705 43.9804 64.8389 36.554 67.9057 33.4872L79.9768 21.416C81.6753 19.7176 84.4301 19.7176 86.1286 21.416C86.9779 22.2653 87.4024 23.3786 87.4024 24.4918L87.4033 64.5592C87.4033 66.9616 85.455 68.9097 83.0526 68.9097C81.8368 68.9097 80.7369 68.4098 79.9473 67.6054L46.8601 34.5188L53.0118 28.3669L78.7021 54.0568V34.9942L71.1552 42.1958ZM37.0721 46.8561C38.8568 45.0716 43.3884 52.498 40.3216 55.5648L28.2504 67.6358C26.552 69.3344 23.7972 69.3344 22.0987 67.6358C21.2495 66.7866 20.8248 65.6733 20.8248 64.56L20.824 24.4928C20.824 22.0904 22.7721 20.1421 25.1745 20.1421C26.3905 20.1421 27.4904 20.6421 28.28 21.4465L61.3672 54.5332L55.2155 60.6849L29.5252 34.995V54.0577L37.0721 46.8561Z" fill="#E30016"></path>
</svg><style>@media (prefers-color-scheme: light) { :root { filter: none; } }
@media (prefers-color-scheme: dark) { :root { filter: none; } }
</style></svg>