<svg width="1614" height="316" viewBox="0 0 1614 316" fill="none" xmlns="http://www.w3.org/2000/svg">
<path fill-rule="evenodd" clip-rule="evenodd" d="M454.485 184.109H432.941L501.016 23.7754H523.977L592.355 184.109H569.398L548.657 133.674H495.619L501.323 116.837H541.693L511.768 44.2092L454.485 184.109ZM716.36 184.109V23.7754H737.097L835.21 152.923V23.7754H854.803V184.109H834.062L735.988 53.8525V184.109H716.36ZM995.03 184.109V23.7754H1060.04C1092.8 23.7754 1109.14 38.1234 1109.14 66.7482C1109.14 97.8973 1086.79 116.913 1042.02 123.805L1037.73 106.316C1070.64 101.454 1087.06 88.5585 1087.06 67.6305C1087.06 49.8353 1077.41 40.9561 1058.13 40.9561H1015.77V184.109H995.03ZM1259.47 23.7754V167.272H1343.31V184.109H1238.73V23.7754H1259.47ZM1475.38 184.109H1453.84L1521.91 23.7754H1544.88L1613.25 184.109H1590.3L1569.56 133.674H1516.52L1522.22 116.837H1562.59L1532.67 44.2092L1475.38 184.109Z" fill="white"/>
<path fill-rule="evenodd" clip-rule="evenodd" d="M18.3914 18.3912V250.947C18.3914 276.064 39.0134 296.685 64.1307 296.685H353.762V64.1307C353.762 39.0123 333.141 18.3912 308.024 18.3912H18.3914ZM0 0H308.024C343.297 0 372.154 28.8666 372.154 64.1307V315.076H64.1307C28.8677 315.076 0 286.22 0 250.947V0Z" fill="#E30016"/>
<path fill-rule="evenodd" clip-rule="evenodd" d="M245.369 144.877C239.16 151.086 223.393 125.247 234.062 114.577L276.061 72.5792C281.971 66.6689 291.556 66.6689 297.465 72.5792C300.42 75.5333 301.898 79.4075 301.898 83.2806L301.901 222.685C301.901 231.044 295.122 237.822 286.764 237.822C282.533 237.822 278.706 236.083 275.959 233.284L160.84 118.167L182.243 96.7626L271.627 186.145V119.821L245.369 144.877ZM126.784 161.091C132.994 154.883 148.761 180.721 138.091 191.391L96.0918 233.39C90.1826 239.299 80.5972 239.299 74.688 233.39C71.7339 230.435 70.2556 226.562 70.2556 222.687L70.2534 83.284C70.2534 74.9247 77.0312 68.1469 85.3905 68.1469C89.6202 68.1469 93.4471 69.8862 96.1941 72.685L211.313 187.803L189.91 209.205L100.526 119.824V186.148L126.784 161.091Z" fill="#E30016"/>
<path fill-rule="evenodd" clip-rule="evenodd" d="M459.968 263.262C458.339 261.873 456.611 260.832 454.802 260.137C452.984 259.445 451.075 259.097 449.076 259.097C445.209 259.097 442.061 260.336 439.63 262.824C437.202 265.31 435.987 268.524 435.987 272.483C435.987 276.302 437.169 279.457 439.532 281.945C441.895 284.432 444.878 285.671 448.473 285.671C450.571 285.671 452.562 285.3 454.464 284.555C456.357 283.813 458.174 282.696 459.917 281.193V287.704C458.373 288.82 456.686 289.653 454.86 290.199C453.034 290.753 451.06 291.025 448.936 291.025C446.226 291.025 443.722 290.579 441.425 289.696C439.118 288.803 437.103 287.497 435.358 285.77C433.632 284.077 432.311 282.077 431.377 279.78C430.451 277.481 429.988 275.029 429.988 272.434C429.988 269.83 430.451 267.393 431.377 265.112C432.311 262.824 433.649 260.824 435.409 259.097C437.169 257.354 439.185 256.03 441.457 255.138C443.73 254.238 446.191 253.791 448.836 253.791C450.919 253.791 452.902 254.098 454.786 254.701C456.679 255.313 458.504 256.229 460.281 257.46L459.968 263.262ZM498.873 272.434C498.873 270.64 498.543 268.939 497.889 267.326C497.237 265.715 496.294 264.278 495.071 263.021C493.873 261.774 492.494 260.824 490.923 260.155C489.345 259.485 487.685 259.145 485.949 259.145C484.205 259.145 482.545 259.477 480.967 260.137C479.396 260.799 477.992 261.757 476.769 263.021C475.546 264.261 474.603 265.69 473.959 267.301C473.315 268.913 472.992 270.624 472.992 272.434C472.992 274.226 473.315 275.921 473.959 277.515C474.603 279.11 475.546 280.539 476.769 281.796C477.992 283.06 479.388 284.018 480.959 284.679C482.519 285.34 484.19 285.671 485.949 285.671C487.676 285.671 489.312 285.34 490.874 284.679C492.426 284.018 493.833 283.06 495.071 281.796C496.294 280.539 497.237 279.111 497.889 277.508C498.543 275.897 498.873 274.211 498.873 272.434ZM504.873 272.434C504.873 274.953 504.401 277.333 503.459 279.573C502.509 281.821 501.138 283.821 499.327 285.58C497.509 287.341 495.451 288.687 493.154 289.621C490.866 290.554 488.461 291.025 485.949 291.025C483.396 291.025 480.967 290.555 478.644 289.613C476.331 288.663 474.289 287.324 472.513 285.58C470.703 283.821 469.332 281.828 468.398 279.598C467.464 277.375 466.993 274.987 466.993 272.434C466.993 269.898 467.464 267.51 468.398 265.27C469.332 263.021 470.703 261.013 472.513 259.237C474.323 257.477 476.372 256.138 478.662 255.221C480.95 254.304 483.38 253.841 485.949 253.841C488.494 253.841 490.907 254.304 493.196 255.221C495.476 256.138 497.527 257.477 499.327 259.237C501.138 261.03 502.509 263.056 503.459 265.302C504.401 267.558 504.873 269.93 504.873 272.434ZM512.891 290.084V253.246L535.415 274.904C536.027 275.516 536.647 276.169 537.284 276.863C537.912 277.557 538.573 278.342 539.267 279.208V254.634H544.572V291.472L521.608 269.409C520.996 268.806 520.402 268.178 519.832 267.517C519.252 266.856 518.716 266.162 518.195 265.434V290.084H512.891ZM552.095 282.985L556.69 280.862C557.127 282.439 557.928 283.646 559.094 284.473C560.25 285.308 561.737 285.721 563.547 285.721C565.266 285.721 566.622 285.241 567.639 284.291C568.645 283.34 569.151 282.069 569.151 280.474C569.151 278.39 567.423 276.532 563.96 274.904C563.473 274.663 563.102 274.483 562.845 274.375C558.936 272.467 556.333 270.748 555.036 269.203C553.739 267.658 553.087 265.773 553.087 263.551C553.087 260.658 554.07 258.32 556.028 256.527C557.986 254.734 560.565 253.841 563.745 253.841C566.357 253.841 568.547 254.344 570.306 255.353C572.068 256.362 573.282 257.807 573.96 259.691L569.463 262.022C568.753 260.907 567.976 260.088 567.126 259.577C566.274 259.056 565.299 258.799 564.201 258.799C562.655 258.799 561.416 259.204 560.507 260.014C559.589 260.816 559.135 261.898 559.135 263.253C559.135 265.385 561.143 267.376 565.15 269.211C565.456 269.359 565.696 269.476 565.877 269.55C569.382 271.169 571.785 272.748 573.091 274.283C574.397 275.829 575.05 277.756 575.05 280.061C575.05 283.416 573.992 286.085 571.876 288.058C569.761 290.033 566.902 291.025 563.3 291.025C560.283 291.025 557.813 290.333 555.88 288.944C553.954 287.556 552.69 285.572 552.095 282.985ZM582.607 254.634H588.307V276.161C588.307 279.349 589.044 281.754 590.522 283.357C592.001 284.968 594.208 285.77 597.15 285.77C600.066 285.77 602.265 284.968 603.744 283.357C605.222 281.754 605.958 279.349 605.958 276.161V254.634H611.709V276.689C611.709 281.482 610.503 285.076 608.082 287.457C605.66 289.836 602.009 291.025 597.134 291.025C592.258 291.025 588.622 289.835 586.218 287.464C583.813 285.093 582.607 281.498 582.607 276.689V254.634ZM621.067 290.084V254.634H626.818V284.928H639.708V290.084H621.067ZM654.536 259.542V290.084H648.784V259.542H639.365V254.634H663.906V259.542H654.536ZM698.302 272.434C698.302 270.64 697.972 268.939 697.319 267.326C696.666 265.715 695.723 264.278 694.5 263.021C693.303 261.774 691.922 260.824 690.353 260.155C688.775 259.485 687.113 259.145 685.378 259.145C683.634 259.145 681.974 259.477 680.395 260.137C678.825 260.799 677.421 261.757 676.198 263.021C674.975 264.261 674.032 265.69 673.388 267.301C672.744 268.913 672.421 270.624 672.421 272.434C672.421 274.226 672.744 275.921 673.388 277.515C674.032 279.11 674.975 280.539 676.198 281.796C677.421 283.06 678.817 284.018 680.388 284.679C681.949 285.34 683.618 285.671 685.378 285.671C687.104 285.671 688.74 285.34 690.303 284.679C691.856 284.018 693.261 283.06 694.5 281.796C695.723 280.539 696.666 279.111 697.319 277.508C697.972 275.897 698.302 274.211 698.302 272.434ZM704.301 272.434C704.301 274.953 703.83 277.333 702.887 279.573C701.938 281.821 700.566 283.821 698.755 285.58C696.939 287.341 694.88 288.687 692.583 289.621C690.295 290.554 687.89 291.025 685.378 291.025C682.824 291.025 680.395 290.555 678.074 289.613C675.76 288.663 673.718 287.324 671.942 285.58C670.132 283.821 668.76 281.828 667.827 279.598C666.893 277.375 666.423 274.987 666.423 272.434C666.423 269.898 666.893 267.51 667.827 265.27C668.76 263.021 670.132 261.013 671.942 259.237C673.752 257.477 675.801 256.138 678.09 255.221C680.378 254.304 682.808 253.841 685.378 253.841C687.922 253.841 690.335 254.304 692.624 255.221C694.905 256.138 696.955 257.477 698.755 259.237C700.566 261.03 701.938 263.056 702.887 265.302C703.83 267.558 704.301 269.93 704.301 272.434ZM718.07 269.757H719.12C722.169 269.757 724.194 269.401 725.193 268.69C726.193 267.979 726.698 266.724 726.698 264.913C726.698 262.963 726.161 261.592 725.085 260.791C724.011 259.989 722.021 259.593 719.12 259.593H718.07V269.757ZM717.723 274.218V290.084H712.32V254.634H720.352C722.706 254.634 724.532 254.792 725.838 255.096C727.136 255.402 728.243 255.907 729.16 256.617C730.259 257.477 731.101 258.584 731.705 259.94C732.299 261.294 732.597 262.773 732.597 264.394C732.597 267.228 731.912 269.45 730.539 271.062C729.167 272.665 727.144 273.632 724.466 273.954L736.663 290.084H730.169L718.367 274.218H717.723ZM741.599 290.084V254.634H747.351V290.084H741.599ZM764.542 276.151H774.424L770.789 268.07C770.582 267.557 770.36 266.964 770.136 266.294C769.912 265.625 769.682 264.88 769.459 264.055C769.269 264.832 769.062 265.549 768.838 266.219C768.624 266.888 768.4 267.509 768.179 268.07L764.542 276.151ZM780.473 290.084L776.457 280.961H762.41L758.295 290.084H752.245L769.409 253.246L786.555 290.084H780.473ZM806.267 290.084V254.634H826.049V259.542H812.018V268.418H826.049V273.473H812.018V284.928H826.049V290.084H806.267ZM877.474 263.262C875.846 261.873 874.118 260.832 872.309 260.137C870.492 259.445 868.583 259.097 866.584 259.097C862.716 259.097 859.568 260.336 857.138 262.824C854.709 265.31 853.494 268.524 853.494 272.483C853.494 276.302 854.676 279.457 857.04 281.945C859.402 284.432 862.384 285.671 865.98 285.671C868.079 285.671 870.07 285.3 871.971 284.555C873.863 283.813 875.681 282.696 877.424 281.193V287.704C875.879 288.82 874.194 289.653 872.367 290.199C870.54 290.753 868.567 291.025 866.443 291.025C863.733 291.025 861.229 290.579 858.932 289.696C856.625 288.803 854.609 287.497 852.865 285.77C851.138 284.077 849.818 282.077 848.884 279.78C847.958 277.481 847.495 275.029 847.495 272.434C847.495 269.83 847.958 267.393 848.884 265.112C849.818 262.824 851.156 260.824 852.916 259.097C854.676 257.354 856.692 256.03 858.964 255.138C861.237 254.238 863.698 253.791 866.343 253.791C868.426 253.791 870.409 254.098 872.294 254.701C874.186 255.313 876.01 256.229 877.788 257.46L877.474 263.262ZM916.379 272.434C916.379 270.64 916.05 268.939 915.396 267.326C914.744 265.715 913.801 264.278 912.578 263.021C911.38 261.774 910.001 260.824 908.431 260.155C906.852 259.485 905.192 259.145 903.456 259.145C901.713 259.145 900.051 259.477 898.474 260.137C896.904 260.799 895.499 261.757 894.276 263.021C893.053 264.261 892.11 265.69 891.466 267.301C890.821 268.913 890.499 270.624 890.499 272.434C890.499 274.226 890.821 275.921 891.466 277.515C892.11 279.11 893.053 280.539 894.276 281.796C895.499 283.06 896.896 284.018 898.466 284.679C900.026 285.34 901.697 285.671 903.456 285.671C905.183 285.671 906.819 285.34 908.381 284.679C909.934 284.018 911.34 283.06 912.578 281.796C913.801 280.539 914.744 279.111 915.396 277.508C916.05 275.897 916.379 274.211 916.379 272.434ZM922.379 272.434C922.379 274.953 921.908 277.333 920.966 279.573C920.016 281.821 918.644 283.821 916.834 285.58C915.016 287.341 912.959 288.687 910.661 289.621C908.373 290.554 905.968 291.025 903.456 291.025C900.903 291.025 898.474 290.555 896.151 289.613C893.838 288.663 891.796 287.324 890.019 285.58C888.21 283.821 886.839 281.828 885.905 279.598C884.971 277.375 884.5 274.987 884.5 272.434C884.5 269.898 884.971 267.51 885.905 265.27C886.839 263.021 888.21 261.013 890.019 259.237C891.83 257.477 893.879 256.138 896.168 255.221C898.456 254.304 900.887 253.841 903.456 253.841C906.001 253.841 908.414 254.304 910.703 255.221C912.983 256.138 915.033 257.477 916.834 259.237C918.644 261.03 920.016 263.056 920.966 265.302C921.908 267.558 922.379 269.93 922.379 272.434ZM936.149 269.757H937.197C940.247 269.757 942.272 269.401 943.272 268.69C944.271 267.979 944.776 266.724 944.776 264.913C944.776 262.963 944.238 261.592 943.164 260.791C942.09 259.989 940.098 259.593 937.197 259.593H936.149V269.757ZM935.801 274.218V290.084H930.398V254.634H938.43C940.783 254.634 942.61 254.792 943.916 255.096C945.213 255.402 946.321 255.907 947.237 256.617C948.337 257.477 949.18 258.584 949.784 259.94C950.378 261.294 950.675 262.773 950.675 264.394C950.675 267.228 949.99 269.45 948.617 271.062C947.246 272.665 945.221 273.632 942.544 273.954L954.741 290.084H948.246L936.446 274.218H935.801ZM965.329 269.757H966.379C969.428 269.757 971.453 269.401 972.452 268.69C973.452 267.979 973.957 266.724 973.957 264.913C973.957 262.963 973.42 261.592 972.345 260.791C971.271 259.989 969.28 259.593 966.379 259.593H965.329V269.757ZM964.983 274.218V290.084H959.579V254.634H967.611C969.965 254.634 971.791 254.792 973.097 255.096C974.395 255.402 975.502 255.907 976.419 256.617C977.518 257.477 978.361 258.584 978.964 259.94C979.56 261.294 979.857 262.773 979.857 264.394C979.857 267.228 979.171 269.45 977.798 271.062C976.427 272.665 974.403 273.632 971.726 273.954L983.922 290.084H977.428L965.626 274.218H964.983ZM988.76 290.084V254.634H1008.54V259.542H994.511V268.418H1008.54V273.473H994.511V284.928H1008.54V290.084H988.76ZM1028.01 259.542V290.084H1022.26V259.542H1012.84V254.634H1037.38V259.542H1028.01ZM1071.78 272.434C1071.78 270.64 1071.45 268.939 1070.8 267.326C1070.14 265.715 1069.2 264.278 1067.98 263.021C1066.78 261.774 1065.4 260.824 1063.83 260.155C1062.25 259.485 1060.59 259.145 1058.86 259.145C1057.11 259.145 1055.45 259.477 1053.87 260.137C1052.3 260.799 1050.9 261.757 1049.67 263.021C1048.45 264.261 1047.51 265.69 1046.86 267.301C1046.22 268.913 1045.9 270.624 1045.9 272.434C1045.9 274.226 1046.22 275.921 1046.86 277.515C1047.51 279.11 1048.45 280.539 1049.67 281.796C1050.9 283.06 1052.29 284.018 1053.86 284.679C1055.43 285.34 1057.09 285.671 1058.86 285.671C1060.58 285.671 1062.22 285.34 1063.78 284.679C1065.33 284.018 1066.74 283.06 1067.98 281.796C1069.2 280.539 1070.14 279.111 1070.8 277.508C1071.45 275.897 1071.78 274.211 1071.78 272.434ZM1077.78 272.434C1077.78 274.953 1077.31 277.333 1076.36 279.573C1075.41 281.821 1074.04 283.821 1072.23 285.58C1070.42 287.341 1068.36 288.687 1066.06 289.621C1063.77 290.554 1061.37 291.025 1058.86 291.025C1056.3 291.025 1053.87 290.555 1051.55 289.613C1049.24 288.663 1047.19 287.324 1045.42 285.58C1043.61 283.821 1042.24 281.828 1041.3 279.598C1040.37 277.375 1039.9 274.987 1039.9 272.434C1039.9 269.898 1040.37 267.51 1041.3 265.27C1042.24 263.021 1043.61 261.013 1045.42 259.237C1047.23 257.477 1049.28 256.138 1051.57 255.221C1053.85 254.304 1056.28 253.841 1058.86 253.841C1061.4 253.841 1063.81 254.304 1066.1 255.221C1068.38 256.138 1070.43 257.477 1072.23 259.237C1074.04 261.03 1075.41 263.056 1076.36 265.302C1077.31 267.558 1077.78 269.93 1077.78 272.434ZM1091.55 269.757H1092.6C1095.65 269.757 1097.67 269.401 1098.67 268.69C1099.67 267.979 1100.17 266.724 1100.17 264.913C1100.17 262.963 1099.64 261.592 1098.56 260.791C1097.49 259.989 1095.5 259.593 1092.6 259.593H1091.55V269.757ZM1091.2 274.218V290.084H1085.8V254.634H1093.83C1096.18 254.634 1098.01 254.792 1099.31 255.096C1100.61 255.402 1101.72 255.907 1102.64 256.617C1103.74 257.477 1104.58 258.584 1105.18 259.94C1105.78 261.294 1106.07 262.773 1106.07 264.394C1106.07 267.228 1105.39 269.45 1104.02 271.062C1102.64 272.665 1100.62 273.632 1097.94 273.954L1110.14 290.084H1103.65L1091.84 274.218H1091.2ZM1122.46 276.151H1132.35L1128.71 268.07C1128.5 267.557 1128.28 266.964 1128.06 266.294C1127.83 265.625 1127.6 264.88 1127.38 264.055C1127.19 264.832 1126.98 265.549 1126.76 266.219C1126.55 266.888 1126.32 267.509 1126.1 268.07L1122.46 276.151ZM1138.4 290.084L1134.38 280.961H1120.33L1116.22 290.084H1110.17L1127.33 253.246L1144.48 290.084H1138.4ZM1169.94 284.878H1174.79C1177.45 284.878 1179.45 284.703 1180.78 284.349C1182.12 283.994 1183.28 283.391 1184.26 282.555C1185.6 281.407 1186.61 279.986 1187.28 278.275C1187.95 276.574 1188.28 274.591 1188.28 272.334C1188.28 270.071 1187.95 268.096 1187.28 266.392C1186.61 264.683 1185.6 263.262 1184.26 262.112C1183.26 261.279 1182.06 260.676 1180.67 260.32C1179.27 259.964 1177.08 259.79 1174.1 259.79H1172.02H1169.94V284.878ZM1164.19 290.084V254.634H1171.95C1177 254.634 1180.56 254.89 1182.62 255.394C1184.68 255.907 1186.48 256.757 1188.04 257.947C1190.09 259.518 1191.64 261.526 1192.7 263.979C1193.75 266.435 1194.28 269.236 1194.28 272.384C1194.28 275.532 1193.75 278.318 1192.7 280.746C1191.64 283.176 1190.09 285.184 1188.04 286.77C1186.48 287.96 1184.72 288.81 1182.74 289.323C1180.76 289.827 1177.68 290.084 1173.5 290.084H1171.95H1164.19ZM1202.3 290.084V254.634H1222.08V259.542H1208.05V268.418H1222.08V273.473H1208.05V284.928H1222.08V290.084H1202.3ZM1243.03 282.985L1247.63 280.862C1248.07 282.439 1248.87 283.646 1250.03 284.473C1251.19 285.308 1252.68 285.721 1254.49 285.721C1256.21 285.721 1257.56 285.241 1258.58 284.291C1259.59 283.34 1260.09 282.069 1260.09 280.474C1260.09 278.39 1258.36 276.532 1254.9 274.904C1254.41 274.663 1254.04 274.483 1253.79 274.375C1249.88 272.467 1247.27 270.748 1245.98 269.203C1244.68 267.658 1244.03 265.773 1244.03 263.551C1244.03 260.658 1245.01 258.32 1246.97 256.527C1248.93 254.734 1251.51 253.841 1254.69 253.841C1257.3 253.841 1259.49 254.344 1261.25 255.353C1263.01 256.362 1264.22 257.807 1264.9 259.691L1260.4 262.022C1259.69 260.907 1258.92 260.088 1258.07 259.577C1257.21 259.056 1256.24 258.799 1255.14 258.799C1253.6 258.799 1252.36 259.204 1251.45 260.014C1250.53 260.816 1250.08 261.898 1250.08 263.253C1250.08 265.385 1252.08 267.376 1256.09 269.211C1256.4 269.359 1256.64 269.476 1256.82 269.55C1260.32 271.169 1262.73 272.748 1264.03 274.283C1265.34 275.829 1265.99 277.756 1265.99 280.061C1265.99 283.416 1264.93 286.085 1262.82 288.058C1260.7 290.033 1257.84 291.025 1254.24 291.025C1251.22 291.025 1248.75 290.333 1246.82 288.944C1244.89 287.556 1243.63 285.572 1243.03 282.985ZM1273.7 290.084V254.634H1293.48V259.542H1279.45V268.418H1293.48V273.473H1279.45V284.928H1293.48V290.084H1273.7ZM1321.14 271.938H1335.16C1335.16 272.178 1335.17 272.516 1335.18 272.955C1335.23 274.102 1335.26 274.871 1335.26 275.276C1335.26 280.259 1333.83 284.134 1330.98 286.886C1328.12 289.645 1324.1 291.025 1318.91 291.025C1316 291.025 1313.41 290.596 1311.14 289.744C1308.87 288.886 1306.87 287.597 1305.17 285.869C1303.49 284.158 1302.2 282.151 1301.31 279.837C1300.41 277.532 1299.96 275.061 1299.96 272.434C1299.96 269.757 1300.41 267.285 1301.32 265.021C1302.24 262.765 1303.59 260.773 1305.38 259.048C1307.11 257.354 1309.13 256.063 1311.46 255.172C1313.78 254.287 1316.26 253.841 1318.91 253.841C1321.69 253.841 1324.2 254.355 1326.39 255.37C1328.59 256.387 1330.56 257.94 1332.29 260.039L1328.09 263.212C1326.89 261.823 1325.54 260.791 1324.04 260.114C1322.55 259.435 1320.87 259.097 1319.01 259.097C1315.16 259.097 1312.03 260.328 1309.6 262.789C1307.18 265.253 1305.96 268.451 1305.96 272.384C1305.96 276.392 1307.18 279.638 1309.6 282.126C1312.03 284.622 1315.18 285.869 1319.06 285.869C1322.35 285.869 1324.94 285.101 1326.83 283.572C1328.72 282.035 1329.66 279.953 1329.66 277.3V276.796H1321.14L1321.14 271.938ZM1342.58 254.634H1348.28V276.161C1348.28 279.349 1349.02 281.754 1350.5 283.357C1351.98 284.968 1354.18 285.77 1357.13 285.77C1360.04 285.77 1362.24 284.968 1363.72 283.357C1365.2 281.754 1365.94 279.349 1365.94 276.161V254.634H1371.69V276.689C1371.69 281.482 1370.48 285.076 1368.06 287.457C1365.64 289.836 1361.99 291.025 1357.11 291.025C1352.24 291.025 1348.6 289.835 1346.2 287.464C1343.79 285.093 1342.58 281.498 1342.58 276.689V254.634ZM1386.8 269.757H1387.84C1390.89 269.757 1392.92 269.401 1393.92 268.69C1394.92 267.979 1395.42 266.724 1395.42 264.913C1395.42 262.963 1394.88 261.592 1393.81 260.791C1392.74 259.989 1390.74 259.593 1387.84 259.593H1386.8V269.757ZM1386.45 274.218V290.084H1381.04V254.634H1389.08C1391.43 254.634 1393.26 254.792 1394.56 255.096C1395.86 255.402 1396.97 255.907 1397.88 256.617C1398.98 257.477 1399.83 258.584 1400.43 259.94C1401.02 261.294 1401.32 262.773 1401.32 264.394C1401.32 267.228 1400.64 269.45 1399.26 271.062C1397.89 272.665 1395.87 273.632 1393.19 273.954L1405.39 290.084H1398.89L1387.09 274.218H1386.45ZM1440.57 272.434C1440.57 270.64 1440.24 268.939 1439.58 267.326C1438.93 265.715 1437.99 264.278 1436.77 263.021C1435.57 261.774 1434.19 260.824 1432.62 260.155C1431.04 259.485 1429.38 259.145 1427.64 259.145C1425.9 259.145 1424.24 259.477 1422.66 260.137C1421.09 260.799 1419.69 261.757 1418.46 263.021C1417.24 264.261 1416.3 265.69 1415.65 267.301C1415.01 268.913 1414.69 270.624 1414.69 272.434C1414.69 274.226 1415.01 275.921 1415.65 277.515C1416.3 279.11 1417.24 280.539 1418.46 281.796C1419.69 283.06 1421.08 284.018 1422.65 284.679C1424.21 285.34 1425.88 285.671 1427.64 285.671C1429.37 285.671 1431.01 285.34 1432.57 284.679C1434.12 284.018 1435.53 283.06 1436.77 281.796C1437.99 280.539 1438.93 279.111 1439.58 277.508C1440.24 275.897 1440.57 274.211 1440.57 272.434ZM1446.57 272.434C1446.57 274.953 1446.1 277.333 1445.15 279.573C1444.2 281.821 1442.83 283.821 1441.02 285.58C1439.2 287.341 1437.15 288.687 1434.85 289.621C1432.56 290.554 1430.16 291.025 1427.64 291.025C1425.09 291.025 1422.66 290.555 1420.34 289.613C1418.03 288.663 1415.98 287.324 1414.21 285.58C1412.4 283.821 1411.03 281.828 1410.09 279.598C1409.16 277.375 1408.69 274.987 1408.69 272.434C1408.69 269.898 1409.16 267.51 1410.09 265.27C1411.03 263.021 1412.4 261.013 1414.21 259.237C1416.02 257.477 1418.07 256.138 1420.36 255.221C1422.64 254.304 1425.07 253.841 1427.64 253.841C1430.19 253.841 1432.6 254.304 1434.89 255.221C1437.17 256.138 1439.22 257.477 1441.02 259.237C1442.83 261.03 1444.2 263.056 1445.15 265.302C1446.1 267.558 1446.57 269.93 1446.57 272.434ZM1452.55 282.985L1457.15 280.862C1457.59 282.439 1458.39 283.646 1459.55 284.473C1460.71 285.308 1462.2 285.721 1464.01 285.721C1465.72 285.721 1467.08 285.241 1468.1 284.291C1469.1 283.34 1469.61 282.069 1469.61 280.474C1469.61 278.39 1467.88 276.532 1464.42 274.904C1463.93 274.663 1463.56 274.483 1463.3 274.375C1459.39 272.467 1456.79 270.748 1455.49 269.203C1454.2 267.658 1453.54 265.773 1453.54 263.551C1453.54 260.658 1454.53 258.32 1456.49 256.527C1458.44 254.734 1461.02 253.841 1464.2 253.841C1466.82 253.841 1469 254.344 1470.76 255.353C1472.52 256.362 1473.74 257.807 1474.42 259.691L1469.92 262.022C1469.21 260.907 1468.43 260.088 1467.58 259.577C1466.73 259.056 1465.76 258.799 1464.66 258.799C1463.11 258.799 1461.87 259.204 1460.96 260.014C1460.05 260.816 1459.59 261.898 1459.59 263.253C1459.59 265.385 1461.6 267.376 1465.61 269.211C1465.91 269.359 1466.15 269.476 1466.33 269.55C1469.84 271.169 1472.24 272.748 1473.55 274.283C1474.85 275.829 1475.51 277.756 1475.51 280.061C1475.51 283.416 1474.45 286.085 1472.33 288.058C1470.22 290.033 1467.36 291.025 1463.76 291.025C1460.74 291.025 1458.27 290.333 1456.34 288.944C1454.41 287.556 1453.15 285.572 1452.55 282.985ZM1498.18 290.084V254.634H1503.93V284.928H1516.82V290.084H1498.18ZM1531.65 259.542V290.084H1525.9V259.542H1516.48V254.634H1541.02V259.542H1531.65ZM1552.59 284.878H1557.44C1560.1 284.878 1562.1 284.703 1563.43 284.349C1564.77 283.994 1565.93 283.391 1566.91 282.555C1568.25 281.407 1569.26 279.986 1569.93 278.275C1570.6 276.574 1570.93 274.591 1570.93 272.334C1570.93 270.071 1570.6 268.096 1569.93 266.392C1569.26 264.683 1568.25 263.262 1566.91 262.112C1565.91 261.279 1564.71 260.676 1563.32 260.32C1561.92 259.964 1559.73 259.79 1556.75 259.79H1554.67H1552.59V284.878ZM1546.84 290.084V254.634H1554.6C1559.66 254.634 1563.21 254.89 1565.27 255.394C1567.33 255.907 1569.13 256.757 1570.69 257.947C1572.74 259.518 1574.29 261.526 1575.35 263.979C1576.4 266.435 1576.93 269.236 1576.93 272.384C1576.93 275.532 1576.4 278.318 1575.35 280.746C1574.29 283.176 1572.74 285.184 1570.69 286.77C1569.13 287.96 1567.37 288.81 1565.39 289.323C1563.41 289.827 1560.33 290.084 1556.15 290.084H1554.6H1546.84ZM1591.57 276.151H1601.45L1597.82 268.07C1597.61 267.557 1597.39 266.964 1597.17 266.294C1596.94 265.625 1596.71 264.88 1596.49 264.055C1596.3 264.832 1596.09 265.549 1595.87 266.219C1595.65 266.888 1595.43 267.509 1595.21 268.07L1591.57 276.151ZM1607.5 290.084L1603.49 280.961H1589.44L1585.32 290.084H1579.27L1596.44 253.246L1613.59 290.084H1607.5Z" fill="#E30016"/>
</svg>
