<svg xmlns="http://www.w3.org/2000/svg" viewBox="0 0 500 500"><g id="freepik--background-complete--inject-81"><polygon points="381.52 420.24 389.35 471.67 434.82 471.67 445.37 420.98 381.52 420.24" style="fill:#ebebeb"></polygon><path d="M439,453.2c0,.15-11.65.27-26,.27s-26-.12-26-.27,11.65-.27,26-.27S439,453.05,439,453.2Z" style="fill:#fafafa"></path><path d="M439.19,450.67c0,.15-11.73.27-26.2.27s-26.2-.12-26.2-.27,11.73-.26,26.2-.26S439.19,450.52,439.19,450.67Z" style="fill:#fafafa"></path><path d="M439.1,447.82c0,.14-11.73.26-26.2.26s-26.2-.12-26.2-.26,11.73-.27,26.2-.27S439.1,447.67,439.1,447.82Z" style="fill:#fafafa"></path><path d="M394.57,468.74a41.28,41.28,0,0,1-1.4-6.48,42.77,42.77,0,0,1-.87-6.57,41.28,41.28,0,0,1,1.4,6.48A42.77,42.77,0,0,1,394.57,468.74Z" style="fill:#fafafa"></path><path d="M397.66,468.19a51.08,51.08,0,0,1-.56-6.32,49.42,49.42,0,0,1-.3-6.33,50.34,50.34,0,0,1,.86,12.65Z" style="fill:#fafafa"></path><path d="M403.3,468.19a51.92,51.92,0,0,1-1.53-13.06,187.37,187.37,0,0,1,1.53,13.06Z" style="fill:#fafafa"></path><path d="M407.26,468.46a31.19,31.19,0,0,1-.63-6.58,31.78,31.78,0,0,1,.2-6.61,56.83,56.83,0,0,1,.33,6.59A56.1,56.1,0,0,1,407.26,468.46Z" style="fill:#fafafa"></path><path d="M414.26,468.19a38.08,38.08,0,0,1-.48-6.25,37.05,37.05,0,0,1,.06-6.26,72.67,72.67,0,0,1,.42,12.51Z" style="fill:#fafafa"></path><path d="M419.38,468.46a39.1,39.1,0,0,1-.21-6.46,37.83,37.83,0,0,1,.32-6.46,40.46,40.46,0,0,1,.21,6.46A39.1,39.1,0,0,1,419.38,468.46Z" style="fill:#fafafa"></path><path d="M424.18,467.78a41.53,41.53,0,0,1,.39-6.76,44.31,44.31,0,0,1,.91-6.7,42.06,42.06,0,0,1-.38,6.75A44,44,0,0,1,424.18,467.78Z" style="fill:#fafafa"></path><path d="M430.36,467.1a35.77,35.77,0,0,1,2.46-11.29,50.49,50.49,0,0,1-1.17,5.66A48.12,48.12,0,0,1,430.36,467.1Z" style="fill:#fafafa"></path><path d="M426,318.75a1.81,1.81,0,0,1-.06.25c-.06.19-.13.43-.21.73l-.87,2.77c-.39,1.2-.85,2.68-1.33,4.4s-1.1,3.68-1.64,5.87-1.2,4.57-1.77,7.16-1.17,5.36-1.76,8.28c-1.09,5.87-2.08,12.35-2.78,19.2s-1,13.4-1.07,19.37c0,3,0,5.81.09,8.46s.18,5.12.32,7.38.31,4.28.45,6.07.29,3.32.44,4.58.22,2.18.29,2.89c0,.3.05.55.07.75a.86.86,0,0,1,0,.26.83.83,0,0,1-.06-.25c0-.2-.07-.45-.11-.75-.1-.7-.23-1.66-.4-2.88s-.37-2.79-.53-4.57-.41-3.82-.53-6.08-.32-4.72-.39-7.38-.11-5.5-.13-8.49c.07-6,.36-12.55,1-19.42s1.71-13.36,2.83-19.23c.61-2.93,1.15-5.71,1.81-8.29s1.23-5,1.83-7.16,1.2-4.13,1.72-5.85,1-3.19,1.43-4.38.72-2.08,1-2.75c.1-.29.19-.52.26-.71S426,318.74,426,318.75Z" style="fill:#ebebeb"></path><path d="M417.78,350.59a16.8,16.8,0,0,1,7.07-8.92c1.12-.7,2.54-1.27,3.74-.69,1.58.77,1.71,3,1.24,4.69a12.45,12.45,0,0,1-5.15,7,10.51,10.51,0,0,1-7.72,1.95" style="fill:#ebebeb"></path><path d="M415,372.1c1.17-4.44,4.71-10.75,8.39-13.5a5.41,5.41,0,0,1,1.91-1,2.18,2.18,0,0,1,2,.44,3.13,3.13,0,0,1,.46,2.94,17.92,17.92,0,0,1-13.27,13.36" style="fill:#ebebeb"></path><path d="M414.25,391a26,26,0,0,1,8.47-10.65,4.09,4.09,0,0,1,3-1.05c1.6.29,2.33,2.25,2.19,3.88-.29,3.35-2.85,6-5.49,8.11a34.1,34.1,0,0,1-7.83,4" style="fill:#ebebeb"></path><path d="M414.68,404.64a24.85,24.85,0,0,1,7.21-8.2,5.21,5.21,0,0,1,2.16-1,2.19,2.19,0,0,1,2.12.8c.72,1.06,0,2.5-.74,3.52a20.52,20.52,0,0,1-10.28,7.54" style="fill:#ebebeb"></path><path d="M414.33,399.11A80.47,80.47,0,0,0,404,388.62c-.58-.5-1.32-1-2-.78a1.51,1.51,0,0,0-.94,1.38,3.8,3.8,0,0,0,.39,1.72,19.92,19.92,0,0,0,13.26,11.16" style="fill:#ebebeb"></path><path d="M414.65,381.4l-8.09-9.87a9.88,9.88,0,0,0-2.63-2.49,2.94,2.94,0,0,0-4.56,3.22A8.59,8.59,0,0,0,401,375.5a24.14,24.14,0,0,0,5.9,6.27c2.38,1.63,4.54,2.69,7.39,2.27" style="fill:#ebebeb"></path><path d="M415.78,361.46a28.23,28.23,0,0,0-8.14-12.22,4.76,4.76,0,0,0-2.13-1.24c-1.62-.31-3.18,1-3.71,2.61a6.66,6.66,0,0,0,.74,5.35,14.3,14.3,0,0,0,3.8,4,32.87,32.87,0,0,0,9,4.86" style="fill:#ebebeb"></path><path d="M419,343.69c-.78-5.72-3.76-10.48-7.21-15.11-.73-1-1.74-2-2.94-1.83a2.33,2.33,0,0,0-1.69,1.45,5.36,5.36,0,0,0-.32,2.29,17.67,17.67,0,0,0,11.46,15.78" style="fill:#ebebeb"></path><path d="M421.28,334.61a47.55,47.55,0,0,1-.3-8.84,15.81,15.81,0,0,1,2.94-8.24,6.81,6.81,0,0,1,2.94-2.35,3.73,3.73,0,0,1,3.6.48,3.94,3.94,0,0,1,1.24,3.18,10.16,10.16,0,0,1-.91,3.39c-2.16,5.18-5.76,10.93-9.51,12.38" style="fill:#ebebeb"></path><path d="M386,341.43a3.68,3.68,0,0,1,0,.72c0,.53,0,1.22,0,2.08s0,2,.05,3.28.05,2.74.15,4.34c.15,3.22.46,7,.95,11.27s1.24,8.85,2.23,13.66,2.23,9.34,3.44,13.41,2.51,7.7,3.67,10.7c.55,1.52,1.13,2.86,1.6,4s.91,2.21,1.27,3l.82,1.91a4.47,4.47,0,0,1,.25.68,3.1,3.1,0,0,1-.35-.63l-.91-1.88c-.39-.81-.86-1.81-1.35-3s-1.11-2.51-1.68-4c-1.21-3-2.5-6.62-3.79-10.69S390,381.72,389,376.89s-1.7-9.47-2.2-13.71-.74-8.08-.83-11.31c-.08-1.61-.07-3.07-.08-4.36s0-2.38,0-3.28.06-1.55.08-2.08A3.3,3.3,0,0,1,386,341.43Z" style="fill:#e0e0e0"></path><path d="M387.29,364.88a12,12,0,0,1,2.89-7.6,2.9,2.9,0,0,1,2.4-1.28c1.24.18,1.81,1.68,1.85,2.93a8.88,8.88,0,0,1-2,5.89,7.46,7.46,0,0,1-4.84,3" style="fill:#e0e0e0"></path><path d="M390,380.11c-.16-3.27.89-8.33,2.8-11a3.84,3.84,0,0,1,1.09-1.11,1.57,1.57,0,0,1,1.48-.14,2.21,2.21,0,0,1,.94,1.91,12.77,12.77,0,0,1-6.15,12" style="fill:#e0e0e0"></path><path d="M393.59,393.16a18.68,18.68,0,0,1,3.47-9.07,2.92,2.92,0,0,1,1.79-1.35c1.16-.15,2.08,1,2.33,2.17.52,2.34-.64,4.72-2,6.7a24.47,24.47,0,0,1-4.47,4.43" style="fill:#e0e0e0"></path><path d="M396.81,402.34A17.94,17.94,0,0,1,400,395.2a3.75,3.75,0,0,1,1.26-1.12,1.57,1.57,0,0,1,1.62.09c.72.57.56,1.69.26,2.55a14.62,14.62,0,0,1-5.38,7.35" style="fill:#e0e0e0"></path><path d="M395.38,398.65a58,58,0,0,0-9.27-4.93,1.66,1.66,0,0,0-1.57-.08,1.09,1.09,0,0,0-.34,1.14,2.86,2.86,0,0,0,.63,1.09,14.28,14.28,0,0,0,11.44,4.74" style="fill:#e0e0e0"></path><path d="M391.79,386.52l-7.63-5a6.81,6.81,0,0,0-2.33-1.13,2.09,2.09,0,0,0-2.41,3.17,6.31,6.31,0,0,0,1.77,1.87,17.31,17.31,0,0,0,5.37,3c2,.6,3.67.86,5.52,0" style="fill:#e0e0e0"></path><path d="M388.27,372.71a20.21,20.21,0,0,0-8.18-6.58,3.42,3.42,0,0,0-1.71-.38,2.54,2.54,0,0,0-2,2.57,4.78,4.78,0,0,0,1.66,3.49,10.1,10.1,0,0,0,3.45,1.92,23.19,23.19,0,0,0,7.18,1.37" style="fill:#e0e0e0"></path><path d="M386.64,359.91c-1.76-3.73-4.82-6.33-8.16-8.74a2.51,2.51,0,0,0-2.4-.61,1.68,1.68,0,0,0-.84,1.35,4,4,0,0,0,.28,1.63,12.61,12.61,0,0,0,11.2,8.28" style="fill:#e0e0e0"></path><path d="M386.23,353.24a33.53,33.53,0,0,1-2.11-6,11.4,11.4,0,0,1,.23-6.24,4.89,4.89,0,0,1,1.5-2.23,2.66,2.66,0,0,1,2.55-.45,2.81,2.81,0,0,1,1.53,1.9,7.23,7.23,0,0,1,.11,2.5c-.35,4-1.57,8.68-3.81,10.48" style="fill:#e0e0e0"></path><path d="M443.51,340.93a3.42,3.42,0,0,1,.06.72c0,.53.05,1.22.08,2.08s.06,2,0,3.28,0,2.75-.08,4.36c-.09,3.23-.37,7.07-.83,11.31s-1.2,8.89-2.2,13.71-2.25,9.37-3.49,13.45-2.58,7.7-3.79,10.69c-.57,1.51-1.18,2.84-1.68,4s-1,2.18-1.36,3l-.9,1.87a3.1,3.1,0,0,1-.35.63,3.4,3.4,0,0,1,.25-.68c.21-.48.48-1.12.81-1.91s.81-1.84,1.28-3,1-2.52,1.6-4c1.16-3,2.41-6.63,3.67-10.69s2.41-8.61,3.43-13.42,1.72-9.43,2.24-13.66.8-8.05.94-11.27c.11-1.6.12-3.06.16-4.34s.05-2.38.05-3.28,0-1.55,0-2.08A4.08,4.08,0,0,1,443.51,340.93Z" style="fill:#ebebeb"></path><path d="M442.24,364.38a12,12,0,0,0-2.89-7.6,2.9,2.9,0,0,0-2.4-1.28c-1.24.18-1.81,1.68-1.85,2.93a8.88,8.88,0,0,0,2,5.89,7.51,7.51,0,0,0,4.84,3" style="fill:#ebebeb"></path><path d="M439.49,379.61c.16-3.27-.89-8.33-2.81-11a3.81,3.81,0,0,0-1.08-1.11,1.59,1.59,0,0,0-1.48-.13,2.21,2.21,0,0,0-.95,1.9,12.8,12.8,0,0,0,6.16,12" style="fill:#ebebeb"></path><path d="M435.94,392.67a18.63,18.63,0,0,0-3.48-9.08,2.88,2.88,0,0,0-1.78-1.35c-1.16-.15-2.08,1-2.33,2.17-.52,2.34.64,4.72,2,6.71a24.3,24.3,0,0,0,4.47,4.42" style="fill:#ebebeb"></path><path d="M432.72,401.84a17.94,17.94,0,0,0-3.14-7.14,3.69,3.69,0,0,0-1.27-1.12,1.57,1.57,0,0,0-1.61.09c-.72.57-.56,1.69-.26,2.56a14.64,14.64,0,0,0,5.38,7.34" style="fill:#ebebeb"></path><path d="M434.15,398.15a58,58,0,0,1,9.27-4.93,1.66,1.66,0,0,1,1.57-.08,1.09,1.09,0,0,1,.34,1.14,2.72,2.72,0,0,1-.63,1.09,14.28,14.28,0,0,1-11.44,4.74" style="fill:#ebebeb"></path><path d="M437.74,386l7.63-5a7,7,0,0,1,2.33-1.13,2.09,2.09,0,0,1,2.41,3.17,6.31,6.31,0,0,1-1.77,1.87,17.11,17.11,0,0,1-5.37,3c-2,.6-3.67.86-5.52,0" style="fill:#ebebeb"></path><path d="M441.26,372.21a20.11,20.11,0,0,1,8.18-6.57,3.33,3.33,0,0,1,1.71-.39,2.56,2.56,0,0,1,2,2.57,4.76,4.76,0,0,1-1.66,3.49,10.1,10.1,0,0,1-3.45,1.92,23.25,23.25,0,0,1-7.18,1.37" style="fill:#ebebeb"></path><path d="M442.89,359.41c1.76-3.73,4.81-6.33,8.16-8.74a2.5,2.5,0,0,1,2.4-.61,1.71,1.71,0,0,1,.84,1.35A4,4,0,0,1,454,353a12.61,12.61,0,0,1-11.2,8.28" style="fill:#ebebeb"></path><path d="M443.3,352.74a32.72,32.72,0,0,0,2.1-6,11.31,11.31,0,0,0-.22-6.24,4.89,4.89,0,0,0-1.5-2.23,2.68,2.68,0,0,0-2.56-.45,2.82,2.82,0,0,0-1.52,1.9,7.24,7.24,0,0,0-.11,2.5c.35,4,1.57,8.68,3.81,10.48" style="fill:#ebebeb"></path><path d="M376.3,410.05v9.63a3.79,3.79,0,0,0,3.79,3.79h65.85a3.79,3.79,0,0,0,3.78-3.79v-9.63Z" style="fill:#ebebeb"></path><polygon points="382.01 423.47 382.56 426.53 443.31 430.86 444.85 423.47 382.01 423.47" style="fill:#e0e0e0"></polygon><path d="M257.14,53.26A17.84,17.84,0,0,0,252,31.92a17.85,17.85,0,0,0-21.93.92,10.77,10.77,0,0,0-4.65-8.39A16.83,16.83,0,0,0,216,21.59a23.71,23.71,0,0,0-17.22,6.92c-4.48,4.52-6.92,13.33-6.7,19.68-3.54-.55-8.71,2.86-10.91,5.7a24.17,24.17,0,0,0-1.58,26.49,24.17,24.17,0,0,0,24.08,11.15,20.8,20.8,0,0,0,37.53,3.62c.83-1.42,1.55-3,2.88-4,1.52-1.1,3.52-1.18,5.37-1.49a20,20,0,0,0,7.69-36.45Z" style="fill:#fff"></path><path d="M257.14,53.26l.44.29a11.15,11.15,0,0,1,1.22.89,18.63,18.63,0,0,1,4,4.35,20.9,20.9,0,0,1,3.34,8.77,19.1,19.1,0,0,1-2.35,12.24A21.64,21.64,0,0,1,259,85.47a20.61,20.61,0,0,1-7.09,3.86,24.52,24.52,0,0,1-4.21.84,7.12,7.12,0,0,0-3.94,1.56,17.35,17.35,0,0,0-2.5,3.73,20.39,20.39,0,0,1-2.93,3.73,22,22,0,0,1-8.32,5.24,20.91,20.91,0,0,1-10.3.88,21.65,21.65,0,0,1-16.27-13.7l.28.17a23.63,23.63,0,0,1-8.58-.24A25.37,25.37,0,0,1,187,88.2a24.27,24.27,0,0,1-6.6-6.19,22.86,22.86,0,0,1-3.68-8.45A24.76,24.76,0,0,1,179,56.83c.35-.62.7-1.23,1.08-1.81s.78-1.17,1.26-1.7a18.13,18.13,0,0,1,6.74-4.75,8.32,8.32,0,0,1,4.07-.63l-.29.26a31.77,31.77,0,0,1,1-8.46,30.23,30.23,0,0,1,3-7.71,18.91,18.91,0,0,1,5.38-6,24.08,24.08,0,0,1,6.91-3.54,23.26,23.26,0,0,1,7.38-1.16,18.66,18.66,0,0,1,7,1.3c4.39,1.69,7.65,5.83,7.67,10.17l-.33-.14a17.64,17.64,0,0,1,9.51-4.15,18.52,18.52,0,0,1,9.18,1.28A15.85,15.85,0,0,1,255,34.74a17.62,17.62,0,0,1,3.07,6.08,18.65,18.65,0,0,1,.74,5.4,17.74,17.74,0,0,1-.53,4,13.66,13.66,0,0,1-.8,2.31c-.22.5-.35.77-.35.77s.09-.26.3-.78a15.9,15.9,0,0,0,.74-2.33,17.94,17.94,0,0,0,.48-3.94,19.07,19.07,0,0,0-.78-5.33,17.7,17.7,0,0,0-3.08-6,15.58,15.58,0,0,0-6.32-4.78,18,18,0,0,0-9-1.22A17.24,17.24,0,0,0,230.17,33l-.32.28v-.42A9.84,9.84,0,0,0,227.72,27a12.31,12.31,0,0,0-5.31-3.93,18.36,18.36,0,0,0-6.88-1.26A23,23,0,0,0,208.29,23a23.81,23.81,0,0,0-6.77,3.49,18.39,18.39,0,0,0-5.23,5.82,29.63,29.63,0,0,0-3,7.59,30.83,30.83,0,0,0-1,8.32v.3l-.3,0a7.85,7.85,0,0,0-3.8.6A16.72,16.72,0,0,0,184.72,51a17.16,17.16,0,0,0-3,2.69c-.45.5-.81,1.1-1.22,1.65s-.71,1.17-1.06,1.77A24.43,24.43,0,0,0,176.87,65a24.84,24.84,0,0,0,.31,8.46,22.56,22.56,0,0,0,3.59,8.26,23.67,23.67,0,0,0,6.46,6.05,24.57,24.57,0,0,0,8,3.28,23,23,0,0,0,8.39.24l.2,0,.08.2a21.18,21.18,0,0,0,15.88,13.39,20.33,20.33,0,0,0,10.06-.84A21.64,21.64,0,0,0,238,98.89a19.93,19.93,0,0,0,2.88-3.65,16.87,16.87,0,0,1,2.59-3.81,7.45,7.45,0,0,1,4.15-1.65,24.31,24.31,0,0,0,4.16-.82,20.17,20.17,0,0,0,7-3.76,21.94,21.94,0,0,0,4.72-5.56,18.85,18.85,0,0,0,2.37-12,20.65,20.65,0,0,0-3.24-8.7,19.15,19.15,0,0,0-3.87-4.38c-.5-.45-.95-.73-1.21-.94Z" style="fill:#e0e0e0"></path><path d="M253.92,108.05a5.68,5.68,0,1,1-5.68-5.68A5.68,5.68,0,0,1,253.92,108.05Z" style="fill:#fff"></path><path d="M253.92,108.05s0-.5-.28-1.36a5.65,5.65,0,0,0-2.07-3,5.45,5.45,0,1,0,0,8.73,5.65,5.65,0,0,0,2.07-3c.24-.86.23-1.37.28-1.37s0,.13,0,.37a4.16,4.16,0,0,1-.11,1,5.68,5.68,0,0,1-2.05,3.25,5.88,5.88,0,0,1-8.33-1.16,5.88,5.88,0,0,1,0-7,5.85,5.85,0,0,1,8.33-1.16,5.68,5.68,0,0,1,2.05,3.25,4.16,4.16,0,0,1,.11,1Q254,108.05,253.92,108.05Z" style="fill:#e0e0e0"></path><path d="M329.88,67.5a9.42,9.42,0,0,0-14.77-11.13,5.88,5.88,0,0,0-2.54-4.58,9.16,9.16,0,0,0-5.12-1.56A12.93,12.93,0,0,0,298.06,54c-2.44,2.47-3.78,7.27-3.66,10.74-1.93-.31-4.75,1.55-5.94,3.1a12.84,12.84,0,0,0,12.26,20.53,11.35,11.35,0,0,0,20.47,2,6.39,6.39,0,0,1,1.57-2.15,6.61,6.61,0,0,1,2.93-.81,10.89,10.89,0,0,0,4.19-19.88Z" style="fill:#ebebeb"></path><path d="M313.42,107a3.1,3.1,0,1,1-3.09-3.09A3.09,3.09,0,0,1,313.42,107Z" style="fill:#ebebeb"></path><path d="M158.17,257.42a14.5,14.5,0,0,0-22.72-17.11,9,9,0,0,0-3.9-7,14,14,0,0,0-7.87-2.4,19.83,19.83,0,0,0-14.43,5.8c-3.76,3.79-5.8,11.17-5.62,16.5-3-.47-7.3,2.39-9.14,4.77a19.75,19.75,0,0,0,18.85,31.56,17.45,17.45,0,0,0,31.47,3,10,10,0,0,1,2.41-3.31c1.27-.92,2.95-1,4.51-1.24a16.75,16.75,0,0,0,6.44-30.57Z" style="fill:#ebebeb"></path><circle cx="180.07" cy="251.29" r="4.76" style="fill:#ebebeb"></circle><path d="M440.33,160.23a11,11,0,0,0-16.89,13.22,11.14,11.14,0,1,0,7.28,19.68c.56,5.68,6.8,10.08,12.34,8.7s9-8.22,6.78-13.49c5.41,2.3,12.47-1.55,13.47-7.34s-4.38-11.78-10.25-11.41a7.64,7.64,0,0,0-1-9.58c-2.55-2.39-8.78-3.47-11.72.22" style="fill:#f5f5f5"></path><circle cx="405.12" cy="167.2" r="3.11" style="fill:#f5f5f5"></circle><path d="M387.94,257.41A17.29,17.29,0,0,1,415,237a10.77,10.77,0,0,1,4.66-8.39,16.75,16.75,0,0,1,9.39-2.86,23.71,23.71,0,0,1,17.22,6.92c4.47,4.52,6.92,13.32,6.69,19.68,3.55-.56,8.72,2.86,10.91,5.69a23.56,23.56,0,0,1-22.49,37.65,20.8,20.8,0,0,1-37.53,3.61c-.84-1.41-1.55-3-2.88-3.94-1.52-1.11-3.52-1.18-5.38-1.49a20,20,0,0,1-7.68-36.45Z" style="fill:#fff"></path><path d="M387.94,257.41l-.4.31a14,14,0,0,0-1.21.94,18.93,18.93,0,0,0-3.88,4.38,20.87,20.87,0,0,0-3.24,8.7,18.9,18.9,0,0,0,2.38,12,21.4,21.4,0,0,0,4.72,5.56,19.94,19.94,0,0,0,7,3.77,23.94,23.94,0,0,0,4.16.82,7.53,7.53,0,0,1,4.15,1.64,17.86,17.86,0,0,1,2.59,3.82,19.48,19.48,0,0,0,2.87,3.64,21.57,21.57,0,0,0,8.17,5.12,20.43,20.43,0,0,0,10.06.84,21.19,21.19,0,0,0,15.88-13.4l.07-.19.21,0a23.27,23.27,0,0,0,8.39-.24,24.79,24.79,0,0,0,8-3.28,23.78,23.78,0,0,0,6.45-6.05,22.38,22.38,0,0,0,3.6-8.27,24.77,24.77,0,0,0,.3-8.45,24.36,24.36,0,0,0-2.55-7.92c-.34-.6-.69-1.2-1.06-1.77s-.77-1.15-1.21-1.65a17.68,17.68,0,0,0-6.54-4.61,7.79,7.79,0,0,0-3.81-.6l-.3,0v-.3a31.22,31.22,0,0,0-1-8.32,29.49,29.49,0,0,0-3-7.59,18.32,18.32,0,0,0-5.24-5.82,23.76,23.76,0,0,0-6.76-3.49,23,23,0,0,0-7.24-1.15,18.45,18.45,0,0,0-6.89,1.26,12.28,12.28,0,0,0-5.3,3.93,9.83,9.83,0,0,0-2.13,5.84v.43l-.32-.28a17.18,17.18,0,0,0-9.28-4.09,18.18,18.18,0,0,0-9,1.21,15.67,15.67,0,0,0-6.32,4.79,17.66,17.66,0,0,0-3.07,6,19,19,0,0,0-.78,5.33,18,18,0,0,0,.47,3.94,15.69,15.69,0,0,0,.75,2.33c.21.52.3.78.3.78l-.36-.77a14.45,14.45,0,0,1-.8-2.32,18.17,18.17,0,0,1-.53-4A18.94,18.94,0,0,1,387,245a17.8,17.8,0,0,1,3.07-6.08,16,16,0,0,1,6.41-4.91,18.33,18.33,0,0,1,9.19-1.28,17.61,17.61,0,0,1,9.5,4.15l-.32.14c0-4.34,3.27-8.49,7.66-10.17a18.71,18.71,0,0,1,7.05-1.3,23.29,23.29,0,0,1,7.38,1.15,24.06,24.06,0,0,1,6.9,3.55,18.79,18.79,0,0,1,5.38,6,29.87,29.87,0,0,1,3,7.71,31.32,31.32,0,0,1,1,8.46l-.29-.26a8.15,8.15,0,0,1,4.06.63,18.05,18.05,0,0,1,6.75,4.75c.47.53.83,1.13,1.25,1.69s.74,1.2,1.09,1.81a25,25,0,0,1,2.61,8.1,25.32,25.32,0,0,1-.31,8.63,23,23,0,0,1-3.68,8.46,24.31,24.31,0,0,1-6.61,6.19,25.54,25.54,0,0,1-8.17,3.34,23.64,23.64,0,0,1-8.58.24l.27-.17a21.65,21.65,0,0,1-16.27,13.7,20.87,20.87,0,0,1-10.29-.88,22.05,22.05,0,0,1-8.33-5.24,19.66,19.66,0,0,1-2.92-3.74,17.2,17.2,0,0,0-2.51-3.72,7.09,7.09,0,0,0-3.93-1.56,24.52,24.52,0,0,1-4.21-.84,20.66,20.66,0,0,1-7.1-3.86,22.07,22.07,0,0,1-4.77-5.68A19.12,19.12,0,0,1,379,271.71a20.9,20.9,0,0,1,3.35-8.77,18.64,18.64,0,0,1,4-4.35,13,13,0,0,1,1.23-.9C387.78,257.5,387.94,257.41,387.94,257.41Z" style="fill:#e0e0e0"></path><path d="M369.11,249.56a5.68,5.68,0,1,0,5.68-5.68A5.68,5.68,0,0,0,369.11,249.56Z" style="fill:#fff"></path><path d="M369.11,249.56s0-.12,0-.37a4.09,4.09,0,0,1,.11-1,5.62,5.62,0,0,1,2.05-3.25,5.87,5.87,0,0,1,8.33,1.15,5.89,5.89,0,0,1,0,7,5.87,5.87,0,0,1-8.33,1.15,5.62,5.62,0,0,1-2.05-3.25,4.13,4.13,0,0,1-.11-1c0-.25,0-.37,0-.37s0,.51.28,1.36a5.67,5.67,0,0,0,2.07,3,5.46,5.46,0,1,0,0-8.74,5.64,5.64,0,0,0-2.08,3C369.15,249.05,369.16,249.56,369.11,249.56Z" style="fill:#e0e0e0"></path><path d="M433.74,278.81c0-2.58-.16-7.05-.2-12.18-.05-8-.84-14.55-1.47-14.49h0c-.19-.66-4.86.65-10.5.1a19.88,19.88,0,0,1-6.88-1.83,18.49,18.49,0,0,1-2.16-1.26c-.13-.44-.26-.67-.38-.66-.56,0-.75,6.49-.7,14.53a69.65,69.65,0,0,0,.69,9.33,6.46,6.46,0,0,0-1.45-1,6.26,6.26,0,1,0,3.14,3.85c0-2.58-.17-7.05-.21-12.18,0-2.48-.1-4.81-.23-6.86a16.5,16.5,0,0,0,9,3,16.81,16.81,0,0,0,9-1.88c-.09,2.53-.11,5.82-.09,9.44a69.65,69.65,0,0,0,.69,9.33,6.94,6.94,0,0,0-1.45-1,6.29,6.29,0,1,0,3.13,3.85Zm-11.22-21.87c-4.41-.19-7.93-1.53-9.19-1.66-.13-1.8-.29-3.33-.47-4.49a7.15,7.15,0,0,0,1,.92,14.72,14.72,0,0,0,7.48,2.69c5.44.5,9.63-1.21,10.54-2a19.75,19.75,0,0,0-.39,3.86A46.51,46.51,0,0,1,422.52,256.94Z" style="fill:#e0e0e0"></path><path d="M240.77,62.07a18.3,18.3,0,1,1-19.65-16.79A18.28,18.28,0,0,1,240.77,62.07Z" style="fill:#f5f5f5"></path><path d="M236.43,62.41a13.95,13.95,0,1,1-15-12.8A13.93,13.93,0,0,1,236.43,62.41Z" style="fill:#ebebeb"></path><path d="M236.39,62a8.21,8.21,0,0,1-.49-1.64A14.68,14.68,0,0,0,234,56.19a14.45,14.45,0,0,0-2-2.38,13.63,13.63,0,0,0-4.68-2.88,13.54,13.54,0,0,0-1.94-.55,14.08,14.08,0,0,0-2.08-.26,15.57,15.57,0,0,0-2.15.06,14.56,14.56,0,0,0-2.11.4,13.91,13.91,0,0,0-2,.7,13.17,13.17,0,0,0-1.78,1,13,13,0,0,0-1.55,1.15,13.68,13.68,0,0,0-3.87,5.43,14.61,14.61,0,0,0-1,4.45,8.5,8.5,0,0,1-.13,1.72,4.27,4.27,0,0,1-.29-1.72,13.08,13.08,0,0,1,.71-4.71,14.28,14.28,0,0,1,1.44-3A14,14,0,0,1,213,52.65a13.33,13.33,0,0,1,1.65-1.27,12.86,12.86,0,0,1,1.9-1.05,14.4,14.4,0,0,1,2.12-.77,15.57,15.57,0,0,1,2.28-.44,15.05,15.05,0,0,1,2.32-.06,13.6,13.6,0,0,1,2.23.3,14.26,14.26,0,0,1,4,1.5,13.8,13.8,0,0,1,5.11,4.93,12.76,12.76,0,0,1,1.7,4.44A4.09,4.09,0,0,1,236.39,62Z" style="fill:#e0e0e0"></path><path d="M224.74,71.65l.22,2.42-2.16.2-.22-2.36a10.22,10.22,0,0,1-5.53-1.23l.95-2.75a8.56,8.56,0,0,0,4.33,1.15l-.34-3.6c-2.45-.37-5.2-.92-5.48-4-.21-2.29,1.27-4.4,4.65-5.1l-.22-2.4,2.16-.2.22,2.35a9.88,9.88,0,0,1,4.5.92L227,59.8a8.92,8.92,0,0,0-3.4-.83l.33,3.68c2.45.34,5.16.9,5.44,3.94C229.55,68.84,228.09,70.93,224.74,71.65Zm-3-9.35-.28-3.06c-1.12.36-1.51,1-1.45,1.74S220.73,62.09,221.7,62.3Zm4.2,4.87c-.07-.76-.74-1.11-1.7-1.35l.28,3C225.54,68.46,226,67.86,225.9,67.17Z" style="fill:#e0e0e0"></path></g><g id="freepik--Table--inject-81"><path d="M465.33,472l1.28,0,3.81,0v.11c-21.33.12-110.79.21-217.87.21l-157.67-.08-47.78-.08-13-.05-3.38,0-1.15,0,1.15,0,3.38,0,13-.05,47.78-.08,157.67-.07c107.08,0,196.54.08,217.87.2v.11l-3.81,0Z" style="fill:#263238"></path></g><g id="freepik--speech-bubble-2--inject-81"><path d="M360.34,75.77a17.29,17.29,0,0,1,27.1-20.41A10.74,10.74,0,0,1,392.1,47a16.73,16.73,0,0,1,9.39-2.86A23.69,23.69,0,0,1,418.7,51c4.48,4.52,6.92,13.32,6.7,19.68,3.54-.56,8.71,2.86,10.91,5.69a23.56,23.56,0,0,1-22.5,37.65,20.8,20.8,0,0,1-37.53,3.61c-.83-1.41-1.55-3-2.88-3.94-1.52-1.11-3.52-1.19-5.37-1.49a20,20,0,0,1-7.69-36.46Z" style="fill:#fff"></path><path d="M360.34,75.77s-.12.11-.4.32-.71.49-1.2.94a18.7,18.7,0,0,0-3.88,4.38,20.73,20.73,0,0,0-3.24,8.7,18.84,18.84,0,0,0,2.38,12,21.36,21.36,0,0,0,4.71,5.56,20.24,20.24,0,0,0,7,3.77,25,25,0,0,0,4.15.82,7.56,7.56,0,0,1,4.16,1.64,17.22,17.22,0,0,1,2.58,3.82,20,20,0,0,0,2.88,3.64,21.5,21.5,0,0,0,8.17,5.12,20.43,20.43,0,0,0,10.06.84A21.19,21.19,0,0,0,413.58,114l.07-.19.21,0a23.21,23.21,0,0,0,8.38-.24,25,25,0,0,0,8-3.28,23.68,23.68,0,0,0,6.46-6,22.62,22.62,0,0,0,3.6-8.27,24.77,24.77,0,0,0,.3-8.45,24.36,24.36,0,0,0-2.55-7.92c-.34-.6-.69-1.2-1.06-1.77s-.77-1.15-1.22-1.65a17.75,17.75,0,0,0-6.53-4.61,7.79,7.79,0,0,0-3.81-.6l-.3,0v-.3a30.83,30.83,0,0,0-1-8.32,29.83,29.83,0,0,0-3-7.59A18.44,18.44,0,0,0,416,49a23.81,23.81,0,0,0-6.77-3.49A23,23,0,0,0,402,44.33a18.36,18.36,0,0,0-6.88,1.26,12.37,12.37,0,0,0-5.31,3.93,9.9,9.9,0,0,0-2.13,5.84v.43l-.32-.28A17.24,17.24,0,0,0,378,51.42a18.18,18.18,0,0,0-9,1.21,15.67,15.67,0,0,0-6.32,4.79,17.7,17.7,0,0,0-3.08,6,18.62,18.62,0,0,0-.77,5.33,18,18,0,0,0,.47,3.94,14.58,14.58,0,0,0,.75,2.33c.2.52.29.77.29.77s-.13-.26-.35-.76a13.52,13.52,0,0,1-.8-2.32,17.57,17.57,0,0,1-.53-4,18.94,18.94,0,0,1,.74-5.39,17.8,17.8,0,0,1,3.07-6.08,15.85,15.85,0,0,1,6.41-4.91,18.33,18.33,0,0,1,9.19-1.28,17.64,17.64,0,0,1,9.5,4.15l-.33.14c0-4.34,3.28-8.49,7.67-10.17a18.66,18.66,0,0,1,7-1.3A23.25,23.25,0,0,1,409.33,45a24.11,24.11,0,0,1,6.91,3.55,18.79,18.79,0,0,1,5.38,6,30.23,30.23,0,0,1,3,7.71,31.72,31.72,0,0,1,1,8.46l-.29-.26a8.21,8.21,0,0,1,4.07.63,17.27,17.27,0,0,1,3.63,2,16.7,16.7,0,0,1,3.11,2.78c.48.53.84,1.13,1.26,1.69s.73,1.2,1.08,1.81a25,25,0,0,1,2.61,8.1,25.32,25.32,0,0,1-.3,8.63,23,23,0,0,1-3.69,8.46,24.27,24.27,0,0,1-6.6,6.19,25.5,25.5,0,0,1-8.18,3.34,23.63,23.63,0,0,1-8.58.24l.28-.17a21.67,21.67,0,0,1-16.27,13.7,20.86,20.86,0,0,1-10.29-.88,22.05,22.05,0,0,1-8.33-5.24,20.12,20.12,0,0,1-2.93-3.74,16.81,16.81,0,0,0-2.5-3.72,7.09,7.09,0,0,0-3.94-1.56,24.41,24.41,0,0,1-4.2-.84,20.57,20.57,0,0,1-7.1-3.86,22.07,22.07,0,0,1-4.77-5.68,19.06,19.06,0,0,1-2.35-12.23,21,21,0,0,1,3.34-8.77,18.63,18.63,0,0,1,4-4.35,13.19,13.19,0,0,1,1.22-.9Z" style="fill:#263238"></path><path d="M354.69,124.89a5.68,5.68,0,1,0,5.68-5.68A5.68,5.68,0,0,0,354.69,124.89Z" style="fill:#fff"></path><path d="M354.69,124.89a1.65,1.65,0,0,1,0-.36,4.69,4.69,0,0,1,.11-1,5.68,5.68,0,0,1,2.06-3.25,5.89,5.89,0,0,1,8.32,8.17,5.86,5.86,0,0,1-8.32,1.15,5.65,5.65,0,0,1-2.06-3.25,4.56,4.56,0,0,1-.11-1,1.82,1.82,0,0,1,0-.37c.06,0,0,.51.28,1.36a5.64,5.64,0,0,0,2.08,3,5.46,5.46,0,1,0,0-8.74,5.64,5.64,0,0,0-2.08,3C354.73,124.39,354.75,124.9,354.69,124.89Z" style="fill:#263238"></path></g><g id="freepik--speech-bubble-1--inject-81"><path d="M167.62,125.86c6-12.32,2-28.59-8.91-36.82s-27.65-7.53-37.85,1.59c0-5.73-3.38-11.15-8-14.49a29,29,0,0,0-16.21-4.93A40.91,40.91,0,0,0,66.91,83.15c-7.73,7.8-11.94,23-11.56,34-6.12-1-15,4.92-18.83,9.82-9.92,12.83-11.05,31.8-2.73,45.72s25.56,21.91,41.56,19.25a35.91,35.91,0,0,0,64.77,6.24c1.44-2.44,2.67-5.15,5-6.82,2.63-1.9,6.08-2,9.28-2.55a34.47,34.47,0,0,0,13.26-62.92Z" style="fill:#fff"></path><path d="M167.62,125.86l.75.5a23,23,0,0,1,2.1,1.56,32.2,32.2,0,0,1,6.82,7.53,35.9,35.9,0,0,1,5.73,15.1,32.74,32.74,0,0,1-4.06,21,36.13,36.13,0,0,1-13.87,13.6c-1,.6-2.1,1-3.16,1.56l-1.68.64-.84.32-.87.26a42.18,42.18,0,0,1-7.24,1.44c-2.44.36-5,1-6.87,2.72s-3,4.19-4.36,6.47a34.14,34.14,0,0,1-5,6.41c-1,1-2,1.9-3.09,2.81s-2.25,1.69-3.46,2.43a39.16,39.16,0,0,1-7.76,3.75,35.72,35.72,0,0,1-17.68,1.51,36.92,36.92,0,0,1-16.78-7.87A36.14,36.14,0,0,1,75.11,192l.28.17a40.68,40.68,0,0,1-14.74-.41,43.54,43.54,0,0,1-14-5.75,41.68,41.68,0,0,1-11.34-10.63,39.39,39.39,0,0,1-6.33-14.52A43.35,43.35,0,0,1,28.4,146a42.61,42.61,0,0,1,4.49-13.9c.59-1.06,1.2-2.1,1.86-3.12l1-1.47.52-.73.58-.7a30.85,30.85,0,0,1,11.56-8.15,14.07,14.07,0,0,1,6.93-1.07l-.29.25a53.84,53.84,0,0,1,1.71-14.55A54.57,54.57,0,0,1,59,95.72,45.39,45.39,0,0,1,62,89.31a32.41,32.41,0,0,1,9.23-10.23A41.29,41.29,0,0,1,83.13,73a38.07,38.07,0,0,1,6.33-1.51A36.9,36.9,0,0,1,95.82,71a32.11,32.11,0,0,1,12.1,2.23,21.94,21.94,0,0,1,9.38,7,17.61,17.61,0,0,1,3.76,10.42l-.33-.15a30.27,30.27,0,0,1,16.32-7.13,31.66,31.66,0,0,1,15.8,2.18,27.67,27.67,0,0,1,6.28,3.66,25.82,25.82,0,0,1,2.56,2.3A26.52,26.52,0,0,1,163.88,94a30.66,30.66,0,0,1,5.3,10.45,32.77,32.77,0,0,1,1.29,9.29,32,32,0,0,1-.3,3.76,28.51,28.51,0,0,1-.59,3.07,25.21,25.21,0,0,1-1.36,4l-.6,1.33.54-1.33a25.71,25.71,0,0,0,1.31-4,26.41,26.41,0,0,0,.56-3.06,30,30,0,0,0,.27-3.74,32.77,32.77,0,0,0-1.32-9.23,30.75,30.75,0,0,0-5.31-10.35,24.74,24.74,0,0,0-2.18-2.44A25.24,25.24,0,0,0,159,89.42a26.92,26.92,0,0,0-6.22-3.6,31.27,31.27,0,0,0-15.64-2.12A29.87,29.87,0,0,0,121,90.77l-.32.29v-.43A17.15,17.15,0,0,0,117,80.46a21.42,21.42,0,0,0-9.22-6.85,31.93,31.93,0,0,0-11.94-2.18,37.08,37.08,0,0,0-6.28.49,37.49,37.49,0,0,0-6.26,1.5,41,41,0,0,0-11.73,6,31.86,31.86,0,0,0-9.09,10.1,45.36,45.36,0,0,0-3,6.33,55.43,55.43,0,0,0-2.15,6.8,53.77,53.77,0,0,0-1.69,14.42v.29l-.3,0a13.61,13.61,0,0,0-6.66,1,28.79,28.79,0,0,0-6.11,3.33,29.18,29.18,0,0,0-5.25,4.68l-.56.68-.52.73-1,1.45c-.65,1-1.25,2-1.84,3.07a42.1,42.1,0,0,0-4.42,13.73,42.79,42.79,0,0,0,.52,14.66,39.17,39.17,0,0,0,6.24,14.33,41.27,41.27,0,0,0,11.2,10.5,43.07,43.07,0,0,0,13.88,5.68,40.26,40.26,0,0,0,14.54.41l.21,0,.07.2a35.69,35.69,0,0,0,11,15.44,36.43,36.43,0,0,0,16.54,7.78,35.18,35.18,0,0,0,17.45-1.47,38.79,38.79,0,0,0,7.67-3.7,41.08,41.08,0,0,0,3.42-2.4,40.43,40.43,0,0,0,3.06-2.77,33.31,33.31,0,0,0,5-6.32c1.39-2.24,2.48-4.73,4.44-6.55a9.5,9.5,0,0,1,3.37-2,21.23,21.23,0,0,1,3.72-.84,41.79,41.79,0,0,0,7.19-1.42l.86-.25.83-.31,1.66-.63c1.06-.52,2.15-.95,3.13-1.55a37,37,0,0,0,5.61-3.79,37.6,37.6,0,0,0,8.16-9.64,32.43,32.43,0,0,0,4.09-20.85,36,36,0,0,0-5.62-15.05,33.07,33.07,0,0,0-6.73-7.55c-.86-.77-1.63-1.24-2.09-1.61S167.62,125.86,167.62,125.86Z" style="fill:#263238"></path><circle cx="167.57" cy="210.62" r="9.8" style="fill:#fff"></circle><path d="M177.37,210.62a19.68,19.68,0,0,0-.4-2.36,9.78,9.78,0,0,0-3.58-5.28,9.54,9.54,0,0,0-4-1.77,9.7,9.7,0,0,0-5,.43A9.19,9.19,0,0,0,161.9,203a9,9,0,0,0-2,2,9.54,9.54,0,0,0,0,11.29,9,9,0,0,0,2,2,8.87,8.87,0,0,0,2.42,1.3,9.57,9.57,0,0,0,9.07-1.33A9.78,9.78,0,0,0,177,213a19.27,19.27,0,0,0,.4-2.37,7.52,7.52,0,0,1-.2,2.42,9.87,9.87,0,0,1-7.75,7.42,10,10,0,0,1-5.27-.4,9.67,9.67,0,0,1-2.55-1.36,9.56,9.56,0,0,1-2.13-2.13,10,10,0,0,1,0-11.89,9.56,9.56,0,0,1,2.13-2.13,9.67,9.67,0,0,1,2.55-1.36,10.11,10.11,0,0,1,5.27-.41,9.93,9.93,0,0,1,4.19,1.91,9.77,9.77,0,0,1,3.56,5.52A7.46,7.46,0,0,1,177.37,210.62Z" style="fill:#263238"></path></g><g id="freepik--suspension-points-2--inject-81"><path d="M390.09,86a2.73,2.73,0,1,1-2.73-2.73A2.73,2.73,0,0,1,390.09,86Z" style="fill:#263238"></path><path d="M400.9,86a2.73,2.73,0,1,1-2.73-2.73A2.73,2.73,0,0,1,400.9,86Z" style="fill:#263238"></path><path d="M411.71,86A2.73,2.73,0,1,1,409,83.27,2.73,2.73,0,0,1,411.71,86Z" style="fill:#263238"></path></g><g id="freepik--suspension-points-1--inject-81"><circle cx="89" cy="145.61" r="4.54" style="fill:#263238"></circle><circle cx="106.99" cy="145.61" r="4.54" style="fill:#263238"></circle><path d="M129.52,145.61a4.55,4.55,0,1,1-4.54-4.54A4.55,4.55,0,0,1,129.52,145.61Z" style="fill:#263238"></path></g><g id="freepik--Character--inject-81"><path d="M198.79,275.28s-24.49,7-29,25.92c-4.31,18-13.15,57.58-13.15,57.58S191,357,204.51,352.4Z" style="fill:#EE3237"></path><path d="M305.4,269.93c-1.3-.84-18.7-4.46-18.7-4.46l-41.94,1.09-15,2.77s-2.78,46.61-2.37,47.45,19.82,16.83,20.64,17.67,40.89-12.62,40.89-12.62l26.43-47.41Z" style="fill:#ffbf9d"></path><path d="M405.57,397.5a23.38,23.38,0,0,0,.71-23.07c-6.4-12.67-64.68-87.66-64.68-87.66s-22.16,18.13-20.94,39.17L330,349.27l37.84,36.52Z" style="fill:#ffbf9d"></path><path d="M300.49,268.07c2.11,0,30.2,6.22,39.72,14.3,10.09,8.57,40.13,45.89,40.13,45.89l-44.21,31.38-4.67-6.25L324,400.29s19.26,51.94,21.79,71.72l-167.29-.36S193,428.32,199,414.28c1.18-2.75-11.38-45.74-11.32-57.07.09-18.21,5.29-54.29,5.29-54.29l5.84-27.64L239,267.63s5.33,22.7,27.62,22.7C292.81,290.33,300.49,268.07,300.49,268.07Z" style="fill:#EE3237"></path><g style="opacity:0.30000000000000004"><path d="M344.22,462.27c-.19-2.41-.37-4.81-.56-7.21l-28.44-12H293a5.69,5.69,0,0,0,3.08,4.51,17.21,17.21,0,0,0,5.44,1.62,15.89,15.89,0,0,1,5.42,1.66,14.1,14.1,0,0,0-3.94,2.68c3,2.61,7.55,1.76,11.42,2.65,6.24,1.44,10.44,7.41,16.38,9.81a15.53,15.53,0,0,0,10.77.29,3.92,3.92,0,0,0,2.47-1.81A4.37,4.37,0,0,0,344.22,462.27Z"></path></g><path d="M328.11,313.54a3,3,0,0,1,.21.65l.5,1.9c.22.83.46,1.84.69,3s.54,2.54.76,4.05c.13.76.25,1.55.38,2.37s.22,1.69.33,2.58c.24,1.78.38,3.69.55,5.7.26,4,.37,8.47.25,13.13a166.19,166.19,0,0,1-2.54,23.7c-.54,3-1,5.42-1.42,7.08-.19.79-.34,1.43-.45,1.91a4.15,4.15,0,0,1-.19.66,2.89,2.89,0,0,1,.09-.68c.09-.49.2-1.13.35-1.93.33-1.67.77-4.1,1.26-7.1a184,184,0,0,0,2.38-23.66c.12-4.64,0-9.06-.21-13.08-.16-2-.27-3.91-.5-5.68-.1-.89-.18-1.75-.29-2.58s-.24-1.61-.35-2.36c-.19-1.51-.47-2.86-.68-4.05s-.42-2.21-.61-3-.3-1.43-.4-1.92A4.23,4.23,0,0,1,328.11,313.54Z" style="fill:#263238"></path><path d="M194.8,317a3.1,3.1,0,0,1,.12.67c.06.49.14,1.14.23,1.94.2,1.68.43,4.12.69,7.13.51,6,.94,14.4,1.22,23.63S197.7,368,198.12,374c.22,3,.4,5.39.52,7.14.06.8.11,1.45.14,1.95a3.52,3.52,0,0,1,0,.68,2.83,2.83,0,0,1-.11-.67c-.06-.5-.14-1.14-.24-1.94-.2-1.68-.43-4.12-.69-7.14-.51-6-.93-14.39-1.21-23.63s-.65-17.57-1.06-23.61l-.53-7.15c0-.8-.1-1.44-.13-1.94A4.35,4.35,0,0,1,194.8,317Z" style="fill:#263238"></path><path d="M295.8,407.37a5,5,0,0,1-.63.2l-1.82.47c-1.59.4-3.89.93-6.76,1.53A225.48,225.48,0,0,1,264,413a220.77,220.77,0,0,1-22.83,1.11c-2.92,0-5.29-.07-6.92-.15l-1.88-.1a3.18,3.18,0,0,1-.66-.07,2.82,2.82,0,0,1,.66,0h1.88c1.64,0,4,0,6.92,0,5.84-.07,13.91-.38,22.77-1.27s16.84-2.19,22.57-3.29c2.87-.55,5.19-1,6.78-1.37l1.85-.38A2.59,2.59,0,0,1,295.8,407.37Z" style="fill:#263238"></path><path d="M309.19,139.44c7.27-5.51,22-1.74,24.7,3.29a11.56,11.56,0,0,1,14,7.71l15.2,6.42c2.59,1.1,5.3,2.28,7,4.49s2.07,5.8,0,7.65c5.32,2.49,6,11.21,1.07,14.46a6.11,6.11,0,0,1-2.52,8.52,61.39,61.39,0,0,1,6.93,19.55c.49,2.87.73,6-.77,8.5s-5.36,3.69-7.37,1.58a7.15,7.15,0,0,1-1.08,7.66c2.67.56,2.7,4.85.49,6.46s-5.24,1.25-7.91.69-5.54-1.24-8-.12a2.48,2.48,0,0,0,.56,1.86c3.9,4.6,4,11.3-.34,15.48L350,254.71c-2,1.91-6.19,3.22-8.81,4-6.65,2-10.15.76-17.1.48,1,4.7-11.76,12.33-22.57.48-26.36,2.07-44.93,1.26-70.93-3.52-3.71-.68-8.07-2-9.1-5.64-3.15.24-6.14-1.77-8-4.36s-2.68-5.71-3.51-8.76a16.42,16.42,0,0,1-8.91-16.72,20.33,20.33,0,0,1-4.89-15.61c-5.89-3.07-7.82-11.81-3.77-17.07a71.91,71.91,0,0,1,11.79-20.44c-4.08-1.71-4.61-7.74-2.12-11.4s6.83-5.5,10.94-7.15c-3.34.25-5.37-4.26-4-7.32s4.64-4.73,7.78-5.89a60.31,60.31,0,0,1,14.26-3.43c2.56-5.31,10.9-10.35,16.6-11.85,23-6.06,38.28-5.84,61.54,18.91" style="fill:#263238"></path><path d="M242.83,168.75c4.4-14.23,18.25-29.66,32.29-24.67l42.23,22.21a8.73,8.73,0,0,1,5.52,10.43l-24.75,96a27.19,27.19,0,0,1-27.71,20.37h0a27.19,27.19,0,0,1-25.3-32.38c1.31-6.67,2.27-11.69,2.26-11.66s-17.73-7.51-15.75-32.53C232.61,204.08,238,184.57,242.83,168.75Z" style="fill:#ffbf9d"></path><path d="M248.13,192.24a3.18,3.18,0,0,0,2.23,3.84,3,3,0,0,0,3.86-2,3.18,3.18,0,0,0-2.22-3.83A3,3,0,0,0,248.13,192.24Z" style="fill:#263238"></path><path d="M244.63,180c.28.5,3-.67,6.37.14s5.36,3.06,5.82,2.74c.22-.14,0-1-.87-2a8.75,8.75,0,0,0-4.54-2.69,8.35,8.35,0,0,0-5.19.39C245,179.13,244.48,179.78,244.63,180Z" style="fill:#263238"></path><path d="M278.68,199.91a3.17,3.17,0,0,0,2.22,3.83,3,3,0,0,0,3.86-2,3.18,3.18,0,0,0-2.22-3.83A3,3,0,0,0,278.68,199.91Z" style="fill:#263238"></path><path d="M277.17,188.5c.28.5,3.05-.67,6.37.14s5.36,3.06,5.82,2.74c.22-.14,0-1-.88-2A8.72,8.72,0,0,0,284,186.7a8.35,8.35,0,0,0-5.19.39C277.55,187.63,277,188.28,277.17,188.5Z" style="fill:#263238"></path><path d="M259.15,210.26c.07-.19-1.92-1-5.16-2.28-.83-.29-1.59-.66-1.6-1.27a4.49,4.49,0,0,1,1.18-2.38l4.07-5.86c5.7-8.37,10.05-15.33,9.71-15.55s-5.24,6.36-10.94,14.73l-4,5.93a5,5,0,0,0-1.24,3.22,2.21,2.21,0,0,0,1.1,1.58,6,6,0,0,0,1.39.55C257,209.92,259.1,210.44,259.15,210.26Z" style="fill:#263238"></path><path d="M247.37,249.05a63,63,0,0,0,34.35-.83s-11.82,14.67-35.39,6.6Z" style="fill:#ff9a6c"></path><path d="M279,174.46c.11,1,3.53,1.35,7.32,2.76s6.69,3.24,7.4,2.55c.33-.33,0-1.31-1.08-2.5A13,13,0,0,0,287.5,174a12.85,12.85,0,0,0-6.08-.73C279.85,173.46,279,174,279,174.46Z" style="fill:#263238"></path><path d="M248.56,168.84c.4.9,2.88.67,5.64,1.29s5,1.74,5.7,1.08c.33-.33.14-1.18-.71-2.14a8.37,8.37,0,0,0-9.13-1.9C248.9,167.71,248.39,168.41,248.56,168.84Z" style="fill:#263238"></path><path d="M229.63,178.31a17,17,0,0,1,6.07-9.68c1.73-1.25,3.76-2.06,5.35-3.48,3.44-3.06,4-8.13,6-12.27a18.71,18.71,0,0,1,13.77-10.14c4.88-.74,10,.48,14.73-1,3.49-1.07,6.46-3.51,10-4.37,6.91-1.66,13.63,3,18.93,7.75.27,5-3.55,8.52-7.22,11.92a17.29,17.29,0,0,1-13.83,4.38c-3.84-.51-8.11-2.23-11.31,0-3.36,2.31-3.24,7.54-6.19,10.36-4.21,4-11.37.8-16.87,2.73-4.24,1.48-6.73,5.73-9.42,9.34s-6.82,7.11-11.19,6A50.51,50.51,0,0,1,229.63,178.31Z" style="fill:#263238"></path><path d="M293.36,152a87.76,87.76,0,0,1,31.42,12.21c2.85,1.8,5.74,3.95,7,7.09,1.07,2.77.66,5.86.06,8.76-1.88,9.09-7.71,19.52-12.82,27.27l-12.7,4.6c-8.35-3.78-1.39-18.12.5-25.61a18.24,18.24,0,0,1-7.38-17.84A20.16,20.16,0,0,1,293.36,152Z" style="fill:#263238"></path><path d="M307.07,208.67c1.35-5.14,7.95-4.91,11.9-1.36,2.17,1.95,3.46,5.23,2.06,10.69-3.71,14.59-17.58,7.85-17.5,7.43S305.48,214.69,307.07,208.67Z" style="fill:#ffbf9d"></path><path d="M309.39,221c.07,0,.21.24.59.54a2.61,2.61,0,0,0,1.89.53c1.68-.18,3.6-2.29,4.34-4.9a8.64,8.64,0,0,0,.21-3.82A3,3,0,0,0,315,211a1.34,1.34,0,0,0-1.68.32c-.3.36-.28.67-.36.68s-.25-.33,0-.9a1.69,1.69,0,0,1,.81-.77,2,2,0,0,1,1.49,0,3.65,3.65,0,0,1,2.08,2.93,8.85,8.85,0,0,1-.15,4.29c-.84,2.92-3.05,5.28-5.31,5.36a2.81,2.81,0,0,1-2.22-1C309.32,221.39,309.33,221.05,309.39,221Z" style="fill:#ff9a6c"></path><path d="M314.83,231.69a12.46,12.46,0,0,0,2.39.31,8.79,8.79,0,0,0,2.74-.28l-.16-.12a7.47,7.47,0,0,0,10.77,6.93l-.24-.1A3.09,3.09,0,0,0,332,240.1a4.28,4.28,0,0,0,2.43.26,3.88,3.88,0,0,0,2.22-1.18,5.18,5.18,0,0,0,1.23-2.28,7.79,7.79,0,0,0-.65-5.24,22.83,22.83,0,0,0-3.16-4.54l-.09.34a5.29,5.29,0,0,0,3-3,7.68,7.68,0,0,0,.43-4.43,11.92,11.92,0,0,0-1.87-4.18,36,36,0,0,0-2.91-3.64l-.05.34a5.65,5.65,0,0,0,2.29-4,8.12,8.12,0,0,0-.81-4.71c-1.43-2.78-3.92-4.66-6.22-6.42l.07.28a10,10,0,0,0-8.29-14.16l.18.3a8.56,8.56,0,0,0-.6-7.56A8.45,8.45,0,0,0,313.6,172l.15.23a8.41,8.41,0,0,0-2.1-7.08,8.25,8.25,0,0,0-5.83-2.91l.14.18a8.36,8.36,0,0,0-.46-4,10.85,10.85,0,0,0-1.71-3.14,8.67,8.67,0,0,0-4.62-3.15l-.55-.15-.53-.06a8.18,8.18,0,0,0-.95-.07,11.21,11.21,0,0,0-1.49.12l-.89.19-.3.08a1.67,1.67,0,0,0,.31,0l.89-.15a10.27,10.27,0,0,1,1.48-.08,8.09,8.09,0,0,1,.93.09l.52.07.53.15a8.44,8.44,0,0,1,4.48,3.15,10.39,10.39,0,0,1,1.65,3.08,8.06,8.06,0,0,1,.42,3.87l0,.17h.17a7.94,7.94,0,0,1,5.59,2.83,8.08,8.08,0,0,1,2,6.78l0,.19.19,0a8.57,8.57,0,0,1,5.91,11.3l-.12.27.3,0a9.54,9.54,0,0,1,7.91,13.54l-.08.16.15.11c2.29,1.76,4.72,3.61,6.08,6.27a7.69,7.69,0,0,1,.77,4.43,5.21,5.21,0,0,1-2.09,3.69l-.22.14.18.19c2,2.31,4.08,4.73,4.68,7.61a7.21,7.21,0,0,1-.39,4.17,4.87,4.87,0,0,1-2.76,2.81l-.29.1.2.23a22.43,22.43,0,0,1,3.1,4.45,7.25,7.25,0,0,1,.64,5,4,4,0,0,1-3.13,3.2,3.3,3.3,0,0,1-3.71-1.7l-.07-.17-.18.08a7.18,7.18,0,0,1-10.36-6.61v-.17l-.16,0a8.88,8.88,0,0,1-2.66.3,12.21,12.21,0,0,1-2.36-.28,9,9,0,0,1-3.46-1.39,3.49,3.49,0,0,1-1.43-1.77c-.14-.5-.13-.79-.16-.79s0,.07,0,.21a1.69,1.69,0,0,0,.09.6,3.4,3.4,0,0,0,1.41,1.86" style="fill:#455a64"></path><path d="M369.07,222.67a5.14,5.14,0,0,0,.73-.79,7.81,7.81,0,0,0,1.35-2.76,7.56,7.56,0,0,0-.31-4.86,8,8,0,0,0-4.69-4.44l.09.2a10.24,10.24,0,0,0,.08-7.54,10.12,10.12,0,0,0-2.29-3.63,24.08,24.08,0,0,0-3.66-2.68,8,8,0,0,1-1.71-1.52,5.1,5.1,0,0,1-1-2.08c-.38-1.54-.26-3.25-.79-4.93a9.14,9.14,0,0,0-8.12-6.2l.2.3a12,12,0,0,0-10.49-15.93l.2.29a10.57,10.57,0,0,0-14.25-12.83l.23.07a14.49,14.49,0,0,0-4.54-4.15A21.72,21.72,0,0,0,315,147a25.21,25.21,0,0,0-8.86-1.11,18.33,18.33,0,0,0-5.61,1.15,10.33,10.33,0,0,0-1.37.64l-.45.25s.63-.31,1.86-.78a18.61,18.61,0,0,1,5.58-1,25.34,25.34,0,0,1,8.76,1.19,21.38,21.38,0,0,1,5,2.24,14,14,0,0,1,4.4,4.06l.09.13.15-.06A10.16,10.16,0,0,1,338.23,166l-.08.28.28,0a11.59,11.59,0,0,1,10.1,15.33l-.1.29h.3a8.7,8.7,0,0,1,7.72,5.88c.52,1.58.41,3.28.81,4.9a5.62,5.62,0,0,0,1.08,2.24,9,9,0,0,0,1.8,1.59,24.12,24.12,0,0,1,3.63,2.62,9.64,9.64,0,0,1,2.22,3.49,10,10,0,0,1,0,7.29l-.06.15.15,0a7.76,7.76,0,0,1,4.56,4.25,7.42,7.42,0,0,1,.37,4.73,8,8,0,0,1-1.26,2.75C369.32,222.4,369.05,222.65,369.07,222.67Z" style="fill:#455a64"></path><path d="M227.23,199.34a1.45,1.45,0,0,0,.29-1.2,2.91,2.91,0,0,0-.62-1.39,5,5,0,0,0-1.65-1.27,8.93,8.93,0,0,1-2.11-1.41,4.68,4.68,0,0,1-1.2-2.69,9.2,9.2,0,0,1,.28-3.45c.29-1.2.73-2.46,1-3.84.57-2.79-.07-5.86-.19-9.08a12.56,12.56,0,0,1,.74-4.89,6,6,0,0,1,3.48-3.63c1.68-.63,3.59-.55,5.51-.75a9,9,0,0,0,2.88-.71,6.08,6.08,0,0,0,2.32-2,29.41,29.41,0,0,0,2.67-5.5,10.24,10.24,0,0,1,1.57-2.6,4.53,4.53,0,0,1,2.54-1.48,16.54,16.54,0,0,1,4.19.23,6.63,6.63,0,0,0,2.17-.12,4.22,4.22,0,0,0,1.9-1.06,15.12,15.12,0,0,0,2.27-3.47,9.24,9.24,0,0,1,2.5-3,9,9,0,0,1,7-1.82,9.34,9.34,0,0,1,5.83,3.47l.16.22.15-.22a14.29,14.29,0,0,1,10.23-5.86,13,13,0,0,1,5,.53,12,12,0,0,1,3.83,1.91,10.49,10.49,0,0,1,3.54,4.79,11.65,11.65,0,0,1,.47,1.53c0,.16.07.29.1.4s0,.13,0,.13a.84.84,0,0,0,0-.14c0-.1,0-.24-.07-.4a9.89,9.89,0,0,0-.41-1.56,10.53,10.53,0,0,0-3.52-4.93,12,12,0,0,0-3.89-2,13.26,13.26,0,0,0-5.12-.58,14.62,14.62,0,0,0-10.52,5.95h.32a9.72,9.72,0,0,0-6.07-3.66,9.48,9.48,0,0,0-7.35,1.89,9.81,9.81,0,0,0-2.62,3.1,14.23,14.23,0,0,1-2.2,3.36,4.34,4.34,0,0,1-3.71,1.05,17,17,0,0,0-4.31-.22,5,5,0,0,0-2.8,1.63,10.22,10.22,0,0,0-1.64,2.71,29,29,0,0,1-2.62,5.43,5.57,5.57,0,0,1-2.15,1.83,8.37,8.37,0,0,1-2.74.69c-1.88.21-3.82.12-5.61.79a5.74,5.74,0,0,0-2.31,1.56A7.47,7.47,0,0,0,223.4,170a12.68,12.68,0,0,0-.75,5c.14,3.28.79,6.3.25,9-.25,1.34-.68,2.6-1,3.83a9.43,9.43,0,0,0-.26,3.55,4.85,4.85,0,0,0,1.3,2.8,9,9,0,0,0,2.19,1.41,5.18,5.18,0,0,1,1.62,1.2,2.81,2.81,0,0,1,.64,1.32A1.82,1.82,0,0,1,227.23,199.34Z" style="fill:#455a64"></path><path d="M203,170.94s.08-.07.21-.24.32-.44.56-.75l2.14-2.9c.94-1.26,2-2.85,3.46-4.53a13.35,13.35,0,0,1,6-4.34c1.32-.41,2.78-.57,4.29-.92a9.51,9.51,0,0,0,2.24-.79,5.25,5.25,0,0,0,1.88-1.63c1-1.4,1.35-3.13,2.22-4.6a4.17,4.17,0,0,1,1.81-1.74,7.76,7.76,0,0,1,2.58-.64,15.56,15.56,0,0,0,2.8-.5,4.79,4.79,0,0,0,2.42-1.69c1.24-1.62,1.64-3.64,2.37-5.48a7.24,7.24,0,0,1,1.51-2.52,3.77,3.77,0,0,1,2.64-1.08c2,0,4,1,6.19,1.13a5.25,5.25,0,0,0,3.13-1,13.44,13.44,0,0,0,2.33-2.18,29.92,29.92,0,0,1,2.11-2.23,5.83,5.83,0,0,1,2.53-1.43c1.91-.47,3.82.35,5.56,1.12a13.38,13.38,0,0,0,5.51,1.58,15.39,15.39,0,0,0,5.3-1.28,25.92,25.92,0,0,1,4.81-1.57,15.53,15.53,0,0,1,8.81,1.42,16.61,16.61,0,0,1,5.83,4.59,18.51,18.51,0,0,1,2.76,4.93,21.2,21.2,0,0,1,.92,3.47c.07.38.13.69.17.92a1.87,1.87,0,0,0,.08.31,1.29,1.29,0,0,0,0-.32c0-.23-.08-.54-.13-.93a19.21,19.21,0,0,0-.84-3.51,18.46,18.46,0,0,0-2.73-5,16.74,16.74,0,0,0-5.89-4.72,15.79,15.79,0,0,0-9-1.5,26.43,26.43,0,0,0-4.89,1.56,14.67,14.67,0,0,1-5.16,1.23,12.62,12.62,0,0,1-5.33-1.55,19.09,19.09,0,0,0-2.77-1,5.71,5.71,0,0,0-5.8,1.43,28.7,28.7,0,0,0-2.15,2.26,13.13,13.13,0,0,1-2.24,2.11,4.88,4.88,0,0,1-2.87.87c-2.07-.06-4-1.14-6.21-1.13a4.26,4.26,0,0,0-3,1.22,7.53,7.53,0,0,0-1.6,2.68c-.75,1.88-1.16,3.87-2.3,5.37a4.42,4.42,0,0,1-2.21,1.55,14.49,14.49,0,0,1-2.72.49,8.26,8.26,0,0,0-2.71.69,4.66,4.66,0,0,0-2,1.9c-.9,1.56-1.25,3.28-2.18,4.59a6.12,6.12,0,0,1-3.89,2.29c-1.48.36-2.95.53-4.3,1a13.72,13.72,0,0,0-6.07,4.48c-1.43,1.72-2.49,3.32-3.4,4.59l-2.07,3-.53.77A1.76,1.76,0,0,0,203,170.94Z" style="fill:#455a64"></path><path d="M221.72,158.55a1.09,1.09,0,0,0-.26-.1,1.76,1.76,0,0,0-.82,0,3.23,3.23,0,0,0-2,2.33,8,8,0,0,0-.12,2.27,9.06,9.06,0,0,1-.11,2.63,5.7,5.7,0,0,1-1.57,2.52c-.74.78-1.64,1.51-2.43,2.45a4.3,4.3,0,0,0-1.09,3.65c.23,1.34.93,2.57,1.13,3.93a5.52,5.52,0,0,1-1.19,4c-.83,1.24-1.9,2.39-2.76,3.78a6.77,6.77,0,0,0-.94,2.3,6.09,6.09,0,0,0,.09,2.55,28.58,28.58,0,0,0,2,4.75,6.91,6.91,0,0,1,.65,5c-.52,1.67-1.78,3-2.75,4.63a7.87,7.87,0,0,0-1.07,2.61,6.06,6.06,0,0,0,.18,2.78,22.51,22.51,0,0,0,2.37,4.79,12.24,12.24,0,0,1,1.77,4.68,36.34,36.34,0,0,0,.64,4.89,5.36,5.36,0,0,0,1.13,2.15,6.86,6.86,0,0,0,1.89,1.41,20.46,20.46,0,0,1,1.91,1.13,7.74,7.74,0,0,1,1.48,1.49,15.48,15.48,0,0,1,1.8,3.62c.47,1.23.89,2.44,1.4,3.54a10.29,10.29,0,0,0,4.41,4.78,11,11,0,0,0,4.73,1.39,9.55,9.55,0,0,0,3.1-.29,7.11,7.11,0,0,0,1-.35,11.57,11.57,0,0,1-4.12.47,11.14,11.14,0,0,1-4.62-1.44,10.11,10.11,0,0,1-4.23-4.7c-.5-1.08-.91-2.28-1.37-3.52a15.28,15.28,0,0,0-1.83-3.72,7.77,7.77,0,0,0-1.55-1.59,19.11,19.11,0,0,0-1.94-1.16,6.68,6.68,0,0,1-1.78-1.33,5.1,5.1,0,0,1-1-2,37.45,37.45,0,0,1-.61-4.83,12.72,12.72,0,0,0-1.81-4.84,22.3,22.3,0,0,1-2.33-4.69,5.78,5.78,0,0,1-.16-2.58,7.35,7.35,0,0,1,1-2.45c.94-1.54,2.23-2.93,2.8-4.73a5.83,5.83,0,0,0,.15-2.75,11.28,11.28,0,0,0-.83-2.54,29.54,29.54,0,0,1-2-4.67,5.59,5.59,0,0,1-.08-2.37,6.25,6.25,0,0,1,.87-2.16c.82-1.35,1.88-2.5,2.74-3.77a6,6,0,0,0,1.23-4.26c-.23-1.46-1-2.68-1.16-3.94a4,4,0,0,1,1-3.38c.75-.92,1.64-1.66,2.39-2.46a6.14,6.14,0,0,0,1.61-2.66,9.2,9.2,0,0,0,.08-2.7,7.94,7.94,0,0,1,.07-2.21,3.18,3.18,0,0,1,1.83-2.29A2,2,0,0,1,221.72,158.55Z" style="fill:#455a64"></path><path d="M368.79,222.11a5.39,5.39,0,0,0,1.2.12,8.33,8.33,0,0,0,3.36-.73,8,8,0,0,0,4-3.74,8.44,8.44,0,0,0,.15-7.2,20.8,20.8,0,0,0-2.36-3.6,10.13,10.13,0,0,1-2.07-4.05,6.6,6.6,0,0,1,1.14-4.64c.87-1.47,2-2.84,2.92-4.49a14.73,14.73,0,0,0-7.3-20.54l.07.37a7.53,7.53,0,0,0,1.91-3,9.7,9.7,0,0,0,.46-3.55,10.2,10.2,0,0,0-.85-3.54,12.58,12.58,0,0,0-2-3.08,23.39,23.39,0,0,0-8.94-5.81,35.15,35.15,0,0,0-9.83-2.37l.19.26a10.68,10.68,0,0,0-4.15-10.23,11,11,0,0,0-5-2,17.73,17.73,0,0,0-5.08.34,10.62,10.62,0,0,1-2.38.08,6.24,6.24,0,0,1-2.17-.67,18.84,18.84,0,0,1-3.54-2.66,15.56,15.56,0,0,0-3.39-2.43,13,13,0,0,0-10.08-.76,12.91,12.91,0,0,0-4.2,2.42,12.42,12.42,0,0,0-2,2.23,7,7,0,0,0-.56.89s.2-.3.62-.84a13.07,13.07,0,0,1,6.25-4.49,12.41,12.41,0,0,1,6.33-.41,12.66,12.66,0,0,1,3.54,1.23,15.72,15.72,0,0,1,3.32,2.41,18.87,18.87,0,0,0,3.58,2.73,6.43,6.43,0,0,0,2.3.71,10.22,10.22,0,0,0,2.47-.07,16.93,16.93,0,0,1,5-.31,10.56,10.56,0,0,1,4.8,1.94,10.27,10.27,0,0,1,4,9.83l0,.23.24,0a35,35,0,0,1,9.7,2.35,22.82,22.82,0,0,1,8.76,5.69,11.93,11.93,0,0,1,1.93,3,10.14,10.14,0,0,1,.81,3.37,9.15,9.15,0,0,1-.44,3.38,7,7,0,0,1-1.79,2.79l-.25.24.32.13a14.34,14.34,0,0,1,7.12,19.95c-.84,1.6-2,3-2.89,4.48a6.93,6.93,0,0,0-1.16,4.89,10.35,10.35,0,0,0,2.16,4.18,21.22,21.22,0,0,1,2.35,3.53,8.22,8.22,0,0,1-.1,7,7.86,7.86,0,0,1-3.81,3.69,8.3,8.3,0,0,1-3.3.79C369.2,222.16,368.8,222.09,368.79,222.11Z" style="fill:#263238"></path><path d="M218.5,147.4a1.36,1.36,0,0,0,.1-.27l.24-.81c.21-.75.52-1.8.91-3.13s.94-3,1.69-4.86a28.83,28.83,0,0,1,3.19-6,19.23,19.23,0,0,1,6-5.54,14.15,14.15,0,0,1,4.23-1.6,43.54,43.54,0,0,1,4.84-.43,13.59,13.59,0,0,0,5.06-1.15,21.77,21.77,0,0,0,4.49-3c1.41-1.15,2.78-2.4,4.31-3.47a15.35,15.35,0,0,1,5.06-2.41,27.18,27.18,0,0,1,11.1-.19A71,71,0,0,1,279.85,117a53.38,53.38,0,0,1,15.77,7.9,38.11,38.11,0,0,1,8.34,8.48c.4.58.77,1.09,1.06,1.55l.69,1.19.44.73a1.55,1.55,0,0,0,.16.24,1.69,1.69,0,0,0-.12-.27l-.4-.75-.66-1.21c-.28-.47-.64-1-1-1.58a37.15,37.15,0,0,0-8.29-8.64,53.3,53.3,0,0,0-15.84-8,69.25,69.25,0,0,0-10.23-2.46,27.59,27.59,0,0,0-11.29.19,15.85,15.85,0,0,0-5.21,2.48c-1.55,1.09-2.93,2.35-4.33,3.5a20.85,20.85,0,0,1-4.39,3,13.12,13.12,0,0,1-4.9,1.13,41,41,0,0,0-4.88.46,14.5,14.5,0,0,0-4.35,1.66,19.5,19.5,0,0,0-6,5.69,29.07,29.07,0,0,0-3.16,6.07c-.73,1.88-1.23,3.55-1.62,4.91s-.65,2.43-.83,3.15c-.09.35-.15.62-.2.83A1.17,1.17,0,0,0,218.5,147.4Z" style="fill:#263238"></path><path d="M272.25,220.59a5.6,5.6,0,0,0-2.38-5.26,4.93,4.93,0,0,0-5.67.22,4.44,4.44,0,0,0-1.2,5.21,4.9,4.9,0,0,0,1.77,2.23,6.18,6.18,0,0,0,3.52,1,4.19,4.19,0,0,0,2.83-.95A3.91,3.91,0,0,0,272.25,220.59Z" style="fill:#ff9a6c"></path><path d="M271.65,213.06c-.56-.08-.92,3.67-4.37,6s-7.42,1.59-7.5,2.11c-.07.23.82.81,2.51,1a9.4,9.4,0,0,0,6.24-1.55,8.15,8.15,0,0,0,3.42-5.08C272.24,214,271.91,213.06,271.65,213.06Z" style="fill:#263238"></path><g style="opacity:0.30000000000000004"><path d="M201.62,410.38c9.93.75,19.3-5.71,24.83-14s8-18.19,10.28-27.88q6.2-25.8,12.4-51.61c1.93-8,4.49-16.91,11.66-21,2.26-1.29,4.88-2,6.81-3.74s2.82-5.1.9-6.84c-1.71-1.55-4.4-.88-6.55-.06-6.63,2.55-13.14,5.9-17.89,11.18s-7.48,12.76-5.64,19.62"></path></g><path d="M211.16,311.71s-11.08,22-21.29,43.47l-22.31,3s-1.44,43.94,18.84,51.56c22.38,8.41,33.86-18.22,41-38.19C233,356,242.76,322.44,245.15,313Z" style="fill:#ffbf9d"></path><path d="M195.45,344.47a6,6,0,0,1-.52,1.15c-.36.72-.91,1.76-1.6,3-1.37,2.56-3.31,6.06-5.37,10s-3.79,7.51-4.93,10.17c-.58,1.32-1,2.41-1.32,3.16a6.13,6.13,0,0,1-.52,1.15,5.39,5.39,0,0,1,.32-1.22c.25-.77.64-1.88,1.18-3.23a108.22,108.22,0,0,1,4.81-10.27c2.07-3.91,4.06-7.39,5.51-9.89l1.74-3A5.45,5.45,0,0,1,195.45,344.47Z" style="fill:#ff9a6c"></path><path d="M242.38,323.07c2.39-9.41,7.18-25.48,10.08-28.56s20.69-10.6,22.58-13.85a4.08,4.08,0,0,0-.52-5.29,28,28,0,0,0,.86-5c.51-4.1-2.23-5.3-2.23-5.3l1-3.08c1.37-5.81-3.93-4.95-3.42-6.15s20.18-6.84,21.54-7.52a3.76,3.76,0,0,0,.86-6c-2.39-2.56-20.35,2.74-26.85,5s-17.61,8-18.8,5.47S247,240,246.14,236.38s-3.59-5.47-5.64-4.79-.69,6.5-.69,9.57a40.37,40.37,0,0,1-4.27,17.27c-3.76,7.87-5,18.13-5,18.13l-19.86,35.89" style="fill:#ffbf9d"></path><path d="M210.72,312.45s.1-.22.33-.64.56-1.06,1-1.87l3.91-7.17,14.46-26.3,0,.07a78.43,78.43,0,0,1,1.89-9.57,53.84,53.84,0,0,1,3.65-9.91,43.12,43.12,0,0,0,3.22-10.73,31.34,31.34,0,0,0,.41-5.83c-.1-2-.45-4-.43-6.05a8.55,8.55,0,0,1,.16-1.58,2.07,2.07,0,0,1,.94-1.41,3.45,3.45,0,0,1,3.21.39,7.61,7.61,0,0,1,3.13,5.54c.49,4.3.22,8.69.68,13.08a13.87,13.87,0,0,0,.28,1.61,3.3,3.3,0,0,0,.27.7.88.88,0,0,0,.55.33,7.6,7.6,0,0,0,3.19-.39,65.54,65.54,0,0,0,6.39-2.34c2.13-.87,4.25-1.78,6.43-2.62s4.43-1.53,6.69-2.23a119.46,119.46,0,0,1,15.67-3.8,23.88,23.88,0,0,1,4-.3,5.69,5.69,0,0,1,2,.33,2,2,0,0,1,.85.67,4.55,4.55,0,0,1,.58.85,3.81,3.81,0,0,1-.26,3.93,4,4,0,0,1-1.49,1.38c-.63.27-1.22.44-1.83.64-4.84,1.55-9.59,3-14.15,4.53-1.15.39-2.28.78-3.38,1.21a15.49,15.49,0,0,0-1.6.71,1.63,1.63,0,0,0-.34.21c-.07,0-.06.06-.09.07a.11.11,0,0,0,0,.07c0,.05.28.23.53.32a8.27,8.27,0,0,1,1.61.79,3.29,3.29,0,0,1,1.2,1.41,5.77,5.77,0,0,1,.1,3.53h0l-1,3.08-.12-.29a4.36,4.36,0,0,1,2,2.22,6.18,6.18,0,0,1,.41,2.87c-.08.95-.23,1.85-.36,2.76a20.73,20.73,0,0,1-.56,2.71l-.06-.25a4.14,4.14,0,0,1,1.29,3.35,4.69,4.69,0,0,1-1.55,3.13,34.82,34.82,0,0,1-5.57,3.65c-3.76,2.1-7.41,3.92-10.76,5.76a42.28,42.28,0,0,0-4.72,2.88,5.81,5.81,0,0,0-1.66,1.93,10.81,10.81,0,0,0-.61,1.11c-.2.37-.38.74-.54,1.12a88,88,0,0,0-3.24,8.47c-1.73,5.2-2.91,9.33-3.71,12.15-.39,1.4-.69,2.47-.89,3.22s-.32,1.1-.32,1.1.07-.39.25-1.12l.83-3.24c.76-2.83,1.9-7,3.6-12.19a90.67,90.67,0,0,1,3.2-8.52c.16-.38.34-.76.54-1.13s.38-.77.61-1.14a6.35,6.35,0,0,1,1.74-2,41.78,41.78,0,0,1,4.75-2.92c3.35-1.86,7-3.69,10.74-5.8a35,35,0,0,0,5.48-3.6,4.38,4.38,0,0,0,1.41-2.86,3.78,3.78,0,0,0-1.15-3l-.1-.09,0-.16a37.28,37.28,0,0,0,.87-5.33,5.73,5.73,0,0,0-.38-2.66,3.9,3.9,0,0,0-1.75-2l-.19-.09.07-.19c.33-1,.67-2,1-3.08v0a5.31,5.31,0,0,0-.07-3.23,2.91,2.91,0,0,0-1-1.2,7.31,7.31,0,0,0-1.54-.74,2.74,2.74,0,0,1-.42-.21.71.71,0,0,1-.4-.49.62.62,0,0,1,.07-.36.81.81,0,0,1,.22-.23,3.93,3.93,0,0,1,.41-.26c.54-.28,1.1-.5,1.65-.73,1.12-.44,2.25-.84,3.4-1.23,4.57-1.56,9.33-3,14.15-4.54.6-.2,1.23-.39,1.77-.62a3.42,3.42,0,0,0,1.28-1.2,3.3,3.3,0,0,0,.23-3.42,2.79,2.79,0,0,0-1.17-1.27,5.21,5.21,0,0,0-1.83-.3,23.24,23.24,0,0,0-3.88.31A118.19,118.19,0,0,0,271.2,246c-2.25.69-4.49,1.38-6.65,2.21s-4.29,1.75-6.42,2.62a68.21,68.21,0,0,1-6.45,2.36c-.55.15-1.11.28-1.68.38a4.63,4.63,0,0,1-1.78,0,1.36,1.36,0,0,1-.84-.53,1.5,1.5,0,0,1-.2-.43,3.09,3.09,0,0,1-.14-.43,14.1,14.1,0,0,1-.3-1.68c-.46-4.46-.18-8.85-.67-13.07a7.08,7.08,0,0,0-2.89-5.19,3,3,0,0,0-2.73-.38,1.63,1.63,0,0,0-.69,1.09,8,8,0,0,0-.15,1.48c0,2,.32,4,.42,6a31.28,31.28,0,0,1-.43,5.92,44,44,0,0,1-3.27,10.83,53.35,53.35,0,0,0-3.66,9.84,76.23,76.23,0,0,0-1.91,9.51v0l0,0-14.6,26.22-4,7.12c-.45.8-.8,1.41-1,1.84S210.72,312.45,210.72,312.45Z" style="fill:#ff9a6c"></path><path d="M337,434.79c.43,0-17.23-15.09-22.78-16.08s-15.52,1.71-15.52,1.71,1.14,5,5,5.29a79.67,79.67,0,0,0,8.39,0l6.26,4.53-3.76-1.7a6.7,6.7,0,0,0-4-.47c-4.28.82-13.73,2.62-14.6,2.73-1.12.15-5.39.86-2.54,7,0,0-4.27,5.12,4.13,6.4s16.61,2,16.61,2l6.44,3.28s-14.94-.14-17.36.57-2.14,2.7-1,3.84,16.94.43,19.64,2.28,11.81,8.68,16.79,8.11,11.25-5.12,12.1-5.55,54.81-61.2,54.81-61.2l-32.86-22.23s-29.48,54.77-31.58,58C338.92,436.63,337,434.79,337,434.79Z" style="fill:#ffbf9d"></path><path d="M326.47,440.2a7.1,7.1,0,0,1-1.27-.47l-3.39-1.43c-1.44-.6-3.14-1.32-5.06-2.06-.95-.36-2-.74-3-1a12.08,12.08,0,0,0-3.36-.07c-4.71.45-8.94,1.28-12,1.81l-3.63.65a8.49,8.49,0,0,1-1.34.18,6,6,0,0,1,1.3-.38c.84-.21,2.07-.5,3.59-.82a111.25,111.25,0,0,1,12-1.95,11.67,11.67,0,0,1,3.54.09,31.38,31.38,0,0,1,3.07,1.08c1.91.76,3.61,1.51,5,2.16s2.56,1.19,3.33,1.58A7,7,0,0,1,326.47,440.2Z" style="fill:#ff9a6c"></path><path d="M389.14,380.21c0,.09-1.4-.22-3.67-.32a26.42,26.42,0,0,0-4,.14,28.09,28.09,0,0,0-4.74,1,27.06,27.06,0,0,0-4.47,1.89,24.74,24.74,0,0,0-3.33,2.15c-1.8,1.37-2.75,2.43-2.82,2.36s.19-.3.62-.78a8.69,8.69,0,0,1,.81-.84c.34-.31.7-.68,1.16-1a22.52,22.52,0,0,1,3.33-2.29,26.39,26.39,0,0,1,4.54-2,25.5,25.5,0,0,1,4.85-1,21.92,21.92,0,0,1,4,0,14.57,14.57,0,0,1,1.54.18,9.48,9.48,0,0,1,1.15.22A3.4,3.4,0,0,1,389.14,380.21Z" style="fill:#ff9a6c"></path></g></svg>